<svg width="422" height="253" viewBox="0 0 422 253" fill="none" xmlns="http://www.w3.org/2000/svg">
<g clip-path="url(#clip0_1809_568)">
<path d="M-1243.21 -683H-1313V-613.211M-1243.21 -683V-613.211M-1243.21 -683H-1173.42M-1243.21 -613.211H-1313M-1243.21 -613.211V-543.421M-1243.21 -613.211H-1173.42M-1313 -613.211V-543.421M-1243.21 -543.421H-1313M-1243.21 -543.421V-473.632M-1243.21 -543.421H-1173.42M-1313 -543.421V-473.632M-1243.21 -473.632H-1313M-1243.21 -473.632V-403.842M-1243.21 -473.632H-1173.42M-1313 -473.632V-403.842M-1243.21 -403.842H-1313M-1243.21 -403.842V-334.053M-1243.21 -403.842H-1173.42M-1313 -403.842V-334.053M-1243.21 -334.053H-1313M-1243.21 -334.053V-264.263M-1243.21 -334.053H-1173.42M-1313 -334.053V-264.263M-1243.21 -264.263H-1313M-1243.21 -264.263V-194.474M-1243.21 -264.263H-1173.42M-1313 -264.263V-194.474M-1243.21 -194.474H-1313M-1243.21 -194.474V-124.684M-1243.21 -194.474H-1173.42M-1313 -194.474V-124.684M-1243.21 -124.684H-1313M-1243.21 -124.684V-54.8948M-1243.21 -124.684H-1173.42M-1313 -124.684V-54.8948M-1243.21 -54.8948H-1313M-1243.21 -54.8948V14.8947M-1243.21 -54.8948H-1173.42M-1313 -54.8948V14.8947M-1243.21 14.8947H-1313M-1243.21 14.8947V84.6842M-1243.21 14.8947H-1173.42M-1313 14.8947V84.6842M-1243.21 84.6842H-1313M-1243.21 84.6842V154.474M-1243.21 84.6842H-1173.42M-1313 84.6842V154.474M-1243.21 154.474H-1313M-1243.21 154.474V224.263M-1243.21 154.474H-1173.42M-1313 154.474V224.263M-1243.21 224.263H-1313M-1243.21 224.263V294.053M-1243.21 224.263H-1173.42M-1313 224.263V294.053M-1243.21 294.053H-1313M-1243.21 294.053V363.842M-1243.21 294.053H-1173.42M-1313 294.053V363.842M-1243.21 363.842H-1313M-1243.21 363.842V433.632M-1243.21 363.842H-1173.42M-1313 363.842V433.632M-1243.21 433.632H-1313M-1243.21 433.632V503.421M-1243.21 433.632H-1173.42M-1313 433.632V503.421M-1243.21 503.421H-1313M-1243.21 503.421V573.21M-1243.21 503.421H-1173.42M-1313 503.421V573.21M-1243.21 573.21H-1313M-1243.21 573.21V643M-1243.21 573.21H-1173.42M-1313 573.21V643H-1243.21M-1243.21 643H-1173.42M-1173.42 -683V-613.211M-1173.42 -683H-1103.63M-1173.42 -613.211V-543.421M-1173.42 -613.211H-1103.63M-1173.42 -543.421V-473.632M-1173.42 -543.421H-1103.63M-1173.42 -473.632V-403.842M-1173.42 -473.632H-1103.63M-1173.42 -403.842V-334.053M-1173.42 -403.842H-1103.63M-1173.42 -334.053V-264.263M-1173.42 -334.053H-1103.63M-1173.42 -264.263V-194.474M-1173.42 -264.263H-1103.63M-1173.42 -194.474V-124.684M-1173.42 -194.474H-1103.63M-1173.42 -124.684V-54.8948M-1173.42 -124.684H-1103.63M-1173.42 -54.8948V14.8947M-1173.42 -54.8948H-1103.63M-1173.42 14.8947V84.6842M-1173.42 14.8947H-1103.63M-1173.42 84.6842V154.474M-1173.42 84.6842H-1103.63M-1173.42 154.474V224.263M-1173.42 154.474H-1103.63M-1173.42 224.263V294.053M-1173.42 224.263H-1103.63M-1173.42 294.053V363.842M-1173.42 294.053H-1103.63M-1173.42 363.842V433.632M-1173.42 363.842H-1103.63M-1173.42 433.632V503.421M-1173.42 433.632H-1103.63M-1173.42 503.421V573.21M-1173.42 503.421H-1103.63M-1173.42 573.21V643M-1173.42 573.21H-1103.63M-1173.42 643H-1103.63M-1103.63 -683V-613.211M-1103.63 -683H-1033.84M-1103.63 -613.211V-543.421M-1103.63 -613.211H-1033.84M-1103.63 -543.421V-473.632M-1103.63 -543.421H-1033.84M-1103.63 -473.632V-403.842M-1103.63 -473.632H-1033.84M-1103.63 -403.842V-334.053M-1103.63 -403.842H-1033.84M-1103.63 -334.053V-264.263M-1103.63 -334.053H-1033.84M-1103.63 -264.263V-194.474M-1103.63 -264.263H-1033.84M-1103.63 -194.474V-124.684M-1103.63 -194.474H-1033.84M-1103.63 -124.684V-54.8948M-1103.63 -124.684H-1033.84M-1103.63 -54.8948V14.8947M-1103.63 -54.8948H-1033.84M-1103.63 14.8947V84.6842M-1103.63 14.8947H-1033.84M-1103.63 84.6842V154.474M-1103.63 84.6842H-1033.84M-1103.63 154.474V224.263M-1103.63 154.474H-1033.84M-1103.63 224.263V294.053M-1103.63 224.263H-1033.84M-1103.63 294.053V363.842M-1103.63 294.053H-1033.84M-1103.63 363.842V433.632M-1103.63 363.842H-1033.84M-1103.63 433.632V503.421M-1103.63 433.632H-1033.84M-1103.63 503.421V573.21M-1103.63 503.421H-1033.84M-1103.63 573.21V643M-1103.63 573.21H-1033.84M-1103.63 643H-1033.84M-1033.84 -683V-613.211M-1033.84 -683H-964.053M-1033.84 -613.211V-543.421M-1033.84 -613.211H-964.053M-1033.84 -543.421V-473.632M-1033.84 -543.421H-964.053M-1033.84 -473.632V-403.842M-1033.84 -473.632H-964.053M-1033.84 -403.842V-334.053M-1033.84 -403.842H-964.053M-1033.84 -334.053V-264.263M-1033.84 -334.053H-964.053M-1033.84 -264.263V-194.474M-1033.84 -264.263H-964.053M-1033.84 -194.474V-124.684M-1033.84 -194.474H-964.053M-1033.84 -124.684V-54.8948M-1033.84 -124.684H-964.053M-1033.84 -54.8948V14.8947M-1033.84 -54.8948H-964.053M-1033.84 14.8947V84.6842M-1033.84 14.8947H-964.053M-1033.84 84.6842V154.474M-1033.84 84.6842H-964.053M-1033.84 154.474V224.263M-1033.84 154.474H-964.053M-1033.84 224.263V294.053M-1033.84 224.263H-964.053M-1033.84 294.053V363.842M-1033.84 294.053H-964.053M-1033.84 363.842V433.632M-1033.84 363.842H-964.053M-1033.84 433.632V503.421M-1033.84 433.632H-964.053M-1033.84 503.421V573.21M-1033.84 503.421H-964.053M-1033.84 573.21V643M-1033.84 573.21H-964.053M-1033.84 643H-964.053M-964.053 -683V-613.211M-964.053 -683H-894.263M-964.053 -613.211V-543.421M-964.053 -613.211H-894.263M-964.053 -543.421V-473.632M-964.053 -543.421H-894.263M-964.053 -473.632V-403.842M-964.053 -473.632H-894.263M-964.053 -403.842V-334.053M-964.053 -403.842H-894.263M-964.053 -334.053V-264.263M-964.053 -334.053H-894.263M-964.053 -264.263V-194.474M-964.053 -264.263H-894.263M-964.053 -194.474V-124.684M-964.053 -194.474H-894.263M-964.053 -124.684V-54.8948M-964.053 -124.684H-894.263M-964.053 -54.8948V14.8947M-964.053 -54.8948H-894.263M-964.053 14.8947V84.6842M-964.053 14.8947H-894.263M-964.053 84.6842V154.474M-964.053 84.6842H-894.263M-964.053 154.474V224.263M-964.053 154.474H-894.263M-964.053 224.263V294.053M-964.053 224.263H-894.263M-964.053 294.053V363.842M-964.053 294.053H-894.263M-964.053 363.842V433.632M-964.053 363.842H-894.263M-964.053 433.632V503.421M-964.053 433.632H-894.263M-964.053 503.421V573.21M-964.053 503.421H-894.263M-964.053 573.21V643M-964.053 573.21H-894.263M-964.053 643H-894.263M-894.263 -683V-613.211M-894.263 -683H-824.474M-894.263 -613.211V-543.421M-894.263 -613.211H-824.474M-894.263 -543.421V-473.632M-894.263 -543.421H-824.474M-894.263 -473.632V-403.842M-894.263 -473.632H-824.474M-894.263 -403.842V-334.053M-894.263 -403.842H-824.474M-894.263 -334.053V-264.263M-894.263 -334.053H-824.474M-894.263 -264.263V-194.474M-894.263 -264.263H-824.474M-894.263 -194.474V-124.684M-894.263 -194.474H-824.474M-894.263 -124.684V-54.8948M-894.263 -124.684H-824.474M-894.263 -54.8948V14.8947M-894.263 -54.8948H-824.474M-894.263 14.8947V84.6842M-894.263 14.8947H-824.474M-894.263 84.6842V154.474M-894.263 84.6842H-824.474M-894.263 154.474V224.263M-894.263 154.474H-824.474M-894.263 224.263V294.053M-894.263 224.263H-824.474M-894.263 294.053V363.842M-894.263 294.053H-824.474M-894.263 363.842V433.632M-894.263 363.842H-824.474M-894.263 433.632V503.421M-894.263 433.632H-824.474M-894.263 503.421V573.21M-894.263 503.421H-824.474M-894.263 573.21V643M-894.263 573.21H-824.474M-894.263 643H-824.474M-824.474 -683V-613.211M-824.474 -683H-754.684M-824.474 -613.211V-543.421M-824.474 -613.211H-754.684M-824.474 -543.421V-473.632M-824.474 -543.421H-754.684M-824.474 -473.632V-403.842M-824.474 -473.632H-754.684M-824.474 -403.842V-334.053M-824.474 -403.842H-754.684M-824.474 -334.053V-264.263M-824.474 -334.053H-754.684M-824.474 -264.263V-194.474M-824.474 -264.263H-754.684M-824.474 -194.474V-124.684M-824.474 -194.474H-754.684M-824.474 -124.684V-54.8948M-824.474 -124.684H-754.684M-824.474 -54.8948V14.8947M-824.474 -54.8948H-754.684M-824.474 14.8947V84.6842M-824.474 14.8947H-754.684M-824.474 84.6842V154.474M-824.474 84.6842H-754.684M-824.474 154.474V224.263M-824.474 154.474H-754.684M-824.474 224.263V294.053M-824.474 224.263H-754.684M-824.474 294.053V363.842M-824.474 294.053H-754.684M-824.474 363.842V433.632M-824.474 363.842H-754.684M-824.474 433.632V503.421M-824.474 433.632H-754.684M-824.474 503.421V573.21M-824.474 503.421H-754.684M-824.474 573.21V643M-824.474 573.21H-754.684M-824.474 643H-754.684M-754.684 -683V-613.211M-754.684 -683H-684.895M-754.684 -613.211V-543.421M-754.684 -613.211H-684.895M-754.684 -543.421V-473.632M-754.684 -543.421H-684.895M-754.684 -473.632V-403.842M-754.684 -473.632H-684.895M-754.684 -403.842V-334.053M-754.684 -403.842H-684.895M-754.684 -334.053V-264.263M-754.684 -334.053H-684.895M-754.684 -264.263V-194.474M-754.684 -264.263H-684.895M-754.684 -194.474V-124.684M-754.684 -194.474H-684.895M-754.684 -124.684V-54.8948M-754.684 -124.684H-684.895M-754.684 -54.8948V14.8947M-754.684 -54.8948H-684.895M-754.684 14.8947V84.6842M-754.684 14.8947H-684.895M-754.684 84.6842V154.474M-754.684 84.6842H-684.895M-754.684 154.474V224.263M-754.684 154.474H-684.895M-754.684 224.263V294.053M-754.684 224.263H-684.895M-754.684 294.053V363.842M-754.684 294.053H-684.895M-754.684 363.842V433.632M-754.684 363.842H-684.895M-754.684 433.632V503.421M-754.684 433.632H-684.895M-754.684 503.421V573.21M-754.684 503.421H-684.895M-754.684 573.21V643M-754.684 573.21H-684.895M-754.684 643H-684.895M-684.895 -683V-613.211M-684.895 -683H-615.105M-684.895 -613.211V-543.421M-684.895 -613.211H-615.105M-684.895 -543.421V-473.632M-684.895 -543.421H-615.105M-684.895 -473.632V-403.842M-684.895 -473.632H-615.105M-684.895 -403.842V-334.053M-684.895 -403.842H-615.105M-684.895 -334.053V-264.263M-684.895 -334.053H-615.105M-684.895 -264.263V-194.474M-684.895 -264.263H-615.105M-684.895 -194.474V-124.684M-684.895 -194.474H-615.105M-684.895 -124.684V-54.8948M-684.895 -124.684H-615.105M-684.895 -54.8948V14.8947M-684.895 -54.8948H-615.105M-684.895 14.8947V84.6842M-684.895 14.8947H-615.105M-684.895 84.6842V154.474M-684.895 84.6842H-615.105M-684.895 154.474V224.263M-684.895 154.474H-615.105M-684.895 224.263V294.053M-684.895 224.263H-615.105M-684.895 294.053V363.842M-684.895 294.053H-615.105M-684.895 363.842V433.632M-684.895 363.842H-615.105M-684.895 433.632V503.421M-684.895 433.632H-615.105M-684.895 503.421V573.21M-684.895 503.421H-615.105M-684.895 573.21V643M-684.895 573.21H-615.105M-684.895 643H-615.105M-615.105 -683V-613.211M-615.105 -683H-545.316M-615.105 -613.211V-543.421M-615.105 -613.211H-545.316M-615.105 -543.421V-473.632M-615.105 -543.421H-545.316M-615.105 -473.632V-403.842M-615.105 -473.632H-545.316M-615.105 -403.842V-334.053M-615.105 -403.842H-545.316M-615.105 -334.053V-264.263M-615.105 -334.053H-545.316M-615.105 -264.263V-194.474M-615.105 -264.263H-545.316M-615.105 -194.474V-124.684M-615.105 -194.474H-545.316M-615.105 -124.684V-54.8948M-615.105 -124.684H-545.316M-615.105 -54.8948V14.8947M-615.105 -54.8948H-545.316M-615.105 14.8947V84.6842M-615.105 14.8947H-545.316M-615.105 84.6842V154.474M-615.105 84.6842H-545.316M-615.105 154.474V224.263M-615.105 154.474H-545.316M-615.105 224.263V294.053M-615.105 224.263H-545.316M-615.105 294.053V363.842M-615.105 294.053H-545.316M-615.105 363.842V433.632M-615.105 363.842H-545.316M-615.105 433.632V503.421M-615.105 433.632H-545.316M-615.105 503.421V573.21M-615.105 503.421H-545.316M-615.105 573.21V643M-615.105 573.21H-545.316M-615.105 643H-545.316M-545.316 -683V-613.211M-545.316 -683H-475.526M-545.316 -613.211V-543.421M-545.316 -613.211H-475.526M-545.316 -543.421V-473.632M-545.316 -543.421H-475.526M-545.316 -473.632V-403.842M-545.316 -473.632H-475.526M-545.316 -403.842V-334.053M-545.316 -403.842H-475.526M-545.316 -334.053V-264.263M-545.316 -334.053H-475.526M-545.316 -264.263V-194.474M-545.316 -264.263H-475.526M-545.316 -194.474V-124.684M-545.316 -194.474H-475.526M-545.316 -124.684V-54.8948M-545.316 -124.684H-475.526M-545.316 -54.8948V14.8947M-545.316 -54.8948H-475.526M-545.316 14.8947V84.6842M-545.316 14.8947H-475.526M-545.316 84.6842V154.474M-545.316 84.6842H-475.526M-545.316 154.474V224.263M-545.316 154.474H-475.526M-545.316 224.263V294.053M-545.316 224.263H-475.526M-545.316 294.053V363.842M-545.316 294.053H-475.526M-545.316 363.842V433.632M-545.316 363.842H-475.526M-545.316 433.632V503.421M-545.316 433.632H-475.526M-545.316 503.421V573.21M-545.316 503.421H-475.526M-545.316 573.21V643M-545.316 573.21H-475.526M-545.316 643H-475.526M-475.526 -683V-613.211M-475.526 -683H-405.737M-475.526 -613.211V-543.421M-475.526 -613.211H-405.737M-475.526 -543.421V-473.632M-475.526 -543.421H-405.737M-475.526 -473.632V-403.842M-475.526 -473.632H-405.737M-475.526 -403.842V-334.053M-475.526 -403.842H-405.737M-475.526 -334.053V-264.263M-475.526 -334.053H-405.737M-475.526 -264.263V-194.474M-475.526 -264.263H-405.737M-475.526 -194.474V-124.684M-475.526 -194.474H-405.737M-475.526 -124.684V-54.8948M-475.526 -124.684H-405.737M-475.526 -54.8948V14.8947M-475.526 -54.8948H-405.737M-475.526 14.8947V84.6842M-475.526 14.8947H-405.737M-475.526 84.6842V154.474M-475.526 84.6842H-405.737M-475.526 154.474V224.263M-475.526 154.474H-405.737M-475.526 224.263V294.053M-475.526 224.263H-405.737M-475.526 294.053V363.842M-475.526 294.053H-405.737M-475.526 363.842V433.632M-475.526 363.842H-405.737M-475.526 433.632V503.421M-475.526 433.632H-405.737M-475.526 503.421V573.21M-475.526 503.421H-405.737M-475.526 573.21V643M-475.526 573.21H-405.737M-475.526 643H-405.737M-405.737 -683V-613.211M-405.737 -683H-335.947M-405.737 -613.211V-543.421M-405.737 -613.211H-335.947M-405.737 -543.421V-473.632M-405.737 -543.421H-335.947M-405.737 -473.632V-403.842M-405.737 -473.632H-335.947M-405.737 -403.842V-334.053M-405.737 -403.842H-335.947M-405.737 -334.053V-264.263M-405.737 -334.053H-335.947M-405.737 -264.263V-194.474M-405.737 -264.263H-335.947M-405.737 -194.474V-124.684M-405.737 -194.474H-335.947M-405.737 -124.684V-54.8948M-405.737 -124.684H-335.947M-405.737 -54.8948V14.8947M-405.737 -54.8948H-335.947M-405.737 14.8947V84.6842M-405.737 14.8947H-335.947M-405.737 84.6842V154.474M-405.737 84.6842H-335.947M-405.737 154.474V224.263M-405.737 154.474H-335.947M-405.737 224.263V294.053M-405.737 224.263H-335.947M-405.737 294.053V363.842M-405.737 294.053H-335.947M-405.737 363.842V433.632M-405.737 363.842H-335.947M-405.737 433.632V503.421M-405.737 433.632H-335.947M-405.737 503.421V573.21M-405.737 503.421H-335.947M-405.737 573.21V643M-405.737 573.21H-335.947M-405.737 643H-335.947M-335.947 -683V-613.211M-335.947 -683H-266.158M-335.947 -613.211V-543.421M-335.947 -613.211H-266.158M-335.947 -543.421V-473.632M-335.947 -543.421H-266.158M-335.947 -473.632V-403.842M-335.947 -473.632H-266.158M-335.947 -403.842V-334.053M-335.947 -403.842H-266.158M-335.947 -334.053V-264.263M-335.947 -334.053H-266.158M-335.947 -264.263V-194.474M-335.947 -264.263H-266.158M-335.947 -194.474V-124.684M-335.947 -194.474H-266.158M-335.947 -124.684V-54.8948M-335.947 -124.684H-266.158M-335.947 -54.8948V14.8947M-335.947 -54.8948H-266.158M-335.947 14.8947V84.6842M-335.947 14.8947H-266.158M-335.947 84.6842V154.474M-335.947 84.6842H-266.158M-335.947 154.474V224.263M-335.947 154.474H-266.158M-335.947 224.263V294.053M-335.947 224.263H-266.158M-335.947 294.053V363.842M-335.947 294.053H-266.158M-335.947 363.842V433.632M-335.947 363.842H-266.158M-335.947 433.632V503.421M-335.947 433.632H-266.158M-335.947 503.421V573.21M-335.947 503.421H-266.158M-335.947 573.21V643M-335.947 573.21H-266.158M-335.947 643H-266.158M-266.158 -683V-613.211M-266.158 -683H-196.368M-266.158 -613.211V-543.421M-266.158 -613.211H-196.368M-266.158 -543.421V-473.632M-266.158 -543.421H-196.368M-266.158 -473.632V-403.842M-266.158 -473.632H-196.368M-266.158 -403.842V-334.053M-266.158 -403.842H-196.368M-266.158 -334.053V-264.263M-266.158 -334.053H-196.368M-266.158 -264.263V-194.474M-266.158 -264.263H-196.368M-266.158 -194.474V-124.684M-266.158 -194.474H-196.368M-266.158 -124.684V-54.8948M-266.158 -124.684H-196.368M-266.158 -54.8948V14.8947M-266.158 -54.8948H-196.368M-266.158 14.8947V84.6842M-266.158 14.8947H-196.368M-266.158 84.6842V154.474M-266.158 84.6842H-196.368M-266.158 154.474V224.263M-266.158 154.474H-196.368M-266.158 224.263V294.053M-266.158 224.263H-196.368M-266.158 294.053V363.842M-266.158 294.053H-196.368M-266.158 363.842V433.632M-266.158 363.842H-196.368M-266.158 433.632V503.421M-266.158 433.632H-196.368M-266.158 503.421V573.21M-266.158 503.421H-196.368M-266.158 573.21V643M-266.158 573.21H-196.368M-266.158 643H-196.368M-196.368 -683V-613.211M-196.368 -683H-126.579M-196.368 -613.211V-543.421M-196.368 -613.211H-126.579M-196.368 -543.421V-473.632M-196.368 -543.421H-126.579M-196.368 -473.632V-403.842M-196.368 -473.632H-126.579M-196.368 -403.842V-334.053M-196.368 -403.842H-126.579M-196.368 -334.053V-264.263M-196.368 -334.053H-126.579M-196.368 -264.263V-194.474M-196.368 -264.263H-126.579M-196.368 -194.474V-124.684M-196.368 -194.474H-126.579M-196.368 -124.684V-54.8948M-196.368 -124.684H-126.579M-196.368 -54.8948V14.8947M-196.368 -54.8948H-126.579M-196.368 14.8947V84.6842M-196.368 14.8947H-126.579M-196.368 84.6842V154.474M-196.368 84.6842H-126.579M-196.368 154.474V224.263M-196.368 154.474H-126.579M-196.368 224.263V294.053M-196.368 224.263H-126.579M-196.368 294.053V363.842M-196.368 294.053H-126.579M-196.368 363.842V433.632M-196.368 363.842H-126.579M-196.368 433.632V503.421M-196.368 433.632H-126.579M-196.368 503.421V573.21M-196.368 503.421H-126.579M-196.368 573.21V643M-196.368 573.21H-126.579M-196.368 643H-126.579M-126.579 -683V-613.211M-126.579 -683H-56.7895M-126.579 -613.211V-543.421M-126.579 -613.211H-56.7895M-126.579 -543.421V-473.632M-126.579 -543.421H-56.7895M-126.579 -473.632V-403.842M-126.579 -473.632H-56.7895M-126.579 -403.842V-334.053M-126.579 -403.842H-56.7895M-126.579 -334.053V-264.263M-126.579 -334.053H-56.7895M-126.579 -264.263V-194.474M-126.579 -264.263H-56.7895M-126.579 -194.474V-124.684M-126.579 -194.474H-56.7895M-126.579 -124.684V-54.8948M-126.579 -124.684H-56.7895M-126.579 -54.8948V14.8947M-126.579 -54.8948H-56.7895M-126.579 14.8947V84.6842M-126.579 14.8947H-56.7895M-126.579 84.6842V154.474M-126.579 84.6842H-56.7895M-126.579 154.474V224.263M-126.579 154.474H-56.7895M-126.579 224.263V294.053M-126.579 224.263H-56.7895M-126.579 294.053V363.842M-126.579 294.053H-56.7895M-126.579 363.842V433.632M-126.579 363.842H-56.7895M-126.579 433.632V503.421M-126.579 433.632H-56.7895M-126.579 503.421V573.21M-126.579 503.421H-56.7895M-126.579 573.21V643M-126.579 573.21H-56.7895M-126.579 643H-56.7895M-56.7895 -683V-613.211M-56.7895 -683H13M-56.7895 -613.211V-543.421M-56.7895 -613.211H13M-56.7895 -543.421V-473.632M-56.7895 -543.421H13M-56.7895 -473.632V-403.842M-56.7895 -473.632H13M-56.7895 -403.842V-334.053M-56.7895 -403.842H13M-56.7895 -334.053V-264.263M-56.7895 -334.053H13M-56.7895 -264.263V-194.474M-56.7895 -264.263H13M-56.7895 -194.474V-124.684M-56.7895 -194.474H13M-56.7895 -124.684V-54.8948M-56.7895 -124.684H13M-56.7895 -54.8948V14.8947M-56.7895 -54.8948H13M-56.7895 14.8947V84.6842M-56.7895 14.8947H13M-56.7895 84.6842V154.474M-56.7895 84.6842H13M-56.7895 154.474V224.263M-56.7895 154.474H13M-56.7895 224.263V294.053M-56.7895 224.263H13M-56.7895 294.053V363.842M-56.7895 294.053H13M-56.7895 363.842V433.632M-56.7895 363.842H13M-56.7895 433.632V503.421M-56.7895 433.632H13M-56.7895 503.421V573.21M-56.7895 503.421H13M-56.7895 573.21V643M-56.7895 573.21H13M-56.7895 643H13M13 -683V-613.211M13 -683H82.7894M13 -613.211V-543.421M13 -613.211H82.7894M13 -543.421V-473.632M13 -543.421H82.7894M13 -473.632V-403.842M13 -473.632H82.7894M13 -403.842V-334.053M13 -403.842H82.7894M13 -334.053V-264.263M13 -334.053H82.7894M13 -264.263V-194.474M13 -264.263H82.7894M13 -194.474V-124.684M13 -194.474H82.7894M13 -124.684V-54.8948M13 -124.684H82.7894M13 -54.8948V14.8947M13 -54.8948H82.7894M13 14.8947V84.6842M13 14.8947H82.7894M13 84.6842V154.474M13 84.6842H82.7894M13 154.474V224.263M13 154.474H82.7894M13 224.263V294.053M13 224.263H82.7894M13 294.053V363.842M13 294.053H82.7894M13 363.842V433.632M13 363.842H82.7894M13 433.632V503.421M13 433.632H82.7894M13 503.421V573.21M13 503.421H82.7894M13 573.21V643M13 573.21H82.7894M13 643H82.7894M82.7894 -683V-613.211M82.7894 -683H152.579M82.7894 -613.211V-543.421M82.7894 -613.211H152.579M82.7894 -543.421V-473.632M82.7894 -543.421H152.579M82.7894 -473.632V-403.842M82.7894 -473.632H152.579M82.7894 -403.842V-334.053M82.7894 -403.842H152.579M82.7894 -334.053V-264.263M82.7894 -334.053H152.579M82.7894 -264.263V-194.474M82.7894 -264.263H152.579M82.7894 -194.474V-124.684M82.7894 -194.474H152.579M82.7894 -124.684V-54.8948M82.7894 -124.684H152.579M82.7894 -54.8948V14.8947M82.7894 -54.8948H152.579M82.7894 14.8947V84.6842M82.7894 14.8947H152.579M82.7894 84.6842V154.474M82.7894 84.6842H152.579M82.7894 154.474V224.263M82.7894 154.474H152.579M82.7894 224.263V294.053M82.7894 224.263H152.579M82.7894 294.053V363.842M82.7894 294.053H152.579M82.7894 363.842V433.632M82.7894 363.842H152.579M82.7894 433.632V503.421M82.7894 433.632H152.579M82.7894 503.421V573.21M82.7894 503.421H152.579M82.7894 573.21V643M82.7894 573.21H152.579M82.7894 643H152.579M152.579 -683V-613.211M152.579 -683H222.368M152.579 -613.211V-543.421M152.579 -613.211H222.368M152.579 -543.421V-473.632M152.579 -543.421H222.368M152.579 -473.632V-403.842M152.579 -473.632H222.368M152.579 -403.842V-334.053M152.579 -403.842H222.368M152.579 -334.053V-264.263M152.579 -334.053H222.368M152.579 -264.263V-194.474M152.579 -264.263H222.368M152.579 -194.474V-124.684M152.579 -194.474H222.368M152.579 -124.684V-54.8948M152.579 -124.684H222.368M152.579 -54.8948V14.8947M152.579 -54.8948H222.368M152.579 14.8947V84.6842M152.579 14.8947H222.368M152.579 84.6842V154.474M152.579 84.6842H222.368M152.579 154.474V224.263M152.579 154.474H222.368M152.579 224.263V294.053M152.579 224.263H222.368M152.579 294.053V363.842M152.579 294.053H222.368M152.579 363.842V433.632M152.579 363.842H222.368M152.579 433.632V503.421M152.579 433.632H222.368M152.579 503.421V573.21M152.579 503.421H222.368M152.579 573.21V643M152.579 573.21H222.368M152.579 643H222.368M222.368 -683V-613.211M222.368 -683H292.158M222.368 -613.211V-543.421M222.368 -613.211H292.158M222.368 -543.421V-473.632M222.368 -543.421H292.158M222.368 -473.632V-403.842M222.368 -473.632H292.158M222.368 -403.842V-334.053M222.368 -403.842H292.158M222.368 -334.053V-264.263M222.368 -334.053H292.158M222.368 -264.263V-194.474M222.368 -264.263H292.158M222.368 -194.474V-124.684M222.368 -194.474H292.158M222.368 -124.684V-54.8948M222.368 -124.684H292.158M222.368 -54.8948V14.8947M222.368 -54.8948H292.158M222.368 14.8947V84.6842M222.368 14.8947H292.158M222.368 84.6842V154.474M222.368 84.6842H292.158M222.368 154.474V224.263M222.368 154.474H292.158M222.368 224.263V294.053M222.368 224.263H292.158M222.368 294.053V363.842M222.368 294.053H292.158M222.368 363.842V433.632M222.368 363.842H292.158M222.368 433.632V503.421M222.368 433.632H292.158M222.368 503.421V573.21M222.368 503.421H292.158M222.368 573.21V643M222.368 573.21H292.158M222.368 643H292.158M292.158 -683V-613.211M292.158 -683H361.947M292.158 -613.211V-543.421M292.158 -613.211H361.947M292.158 -543.421V-473.632M292.158 -543.421H361.947M292.158 -473.632V-403.842M292.158 -473.632H361.947M292.158 -403.842V-334.053M292.158 -403.842H361.947M292.158 -334.053V-264.263M292.158 -334.053H361.947M292.158 -264.263V-194.474M292.158 -264.263H361.947M292.158 -194.474V-124.684M292.158 -194.474H361.947M292.158 -124.684V-54.8948M292.158 -124.684H361.947M292.158 -54.8948V14.8947M292.158 -54.8948H361.947M292.158 14.8947V84.6842M292.158 14.8947H361.947M292.158 84.6842V154.474M292.158 84.6842H361.947M292.158 154.474V224.263M292.158 154.474H361.947M292.158 224.263V294.053M292.158 224.263H361.947M292.158 294.053V363.842M292.158 294.053H361.947M292.158 363.842V433.632M292.158 363.842H361.947M292.158 433.632V503.421M292.158 433.632H361.947M292.158 503.421V573.21M292.158 503.421H361.947M292.158 573.21V643M292.158 573.21H361.947M292.158 643H361.947M361.947 -683V-613.211M361.947 -683H431.737M361.947 -613.211V-543.421M361.947 -613.211H431.737M361.947 -543.421V-473.632M361.947 -543.421H431.737M361.947 -473.632V-403.842M361.947 -473.632H431.737M361.947 -403.842V-334.053M361.947 -403.842H431.737M361.947 -334.053V-264.263M361.947 -334.053H431.737M361.947 -264.263V-194.474M361.947 -264.263H431.737M361.947 -194.474V-124.684M361.947 -194.474H431.737M361.947 -124.684V-54.8948M361.947 -124.684H431.737M361.947 -54.8948V14.8947M361.947 -54.8948H431.737M361.947 14.8947V84.6842M361.947 14.8947H431.737M361.947 84.6842V154.474M361.947 84.6842H431.737M361.947 154.474V224.263M361.947 154.474H431.737M361.947 224.263V294.053M361.947 224.263H431.737M361.947 294.053V363.842M361.947 294.053H431.737M361.947 363.842V433.632M361.947 363.842H431.737M361.947 433.632V503.421M361.947 433.632H431.737M361.947 503.421V573.21M361.947 503.421H431.737M361.947 573.21V643M361.947 573.21H431.737M361.947 643H431.737M431.737 -683V-613.211M431.737 -683H501.526M431.737 -613.211V-543.421M431.737 -613.211H501.526M431.737 -543.421V-473.632M431.737 -543.421H501.526M431.737 -473.632V-403.842M431.737 -473.632H501.526M431.737 -403.842V-334.053M431.737 -403.842H501.526M431.737 -334.053V-264.263M431.737 -334.053H501.526M431.737 -264.263V-194.474M431.737 -264.263H501.526M431.737 -194.474V-124.684M431.737 -194.474H501.526M431.737 -124.684V-54.8948M431.737 -124.684H501.526M431.737 -54.8948V14.8947M431.737 -54.8948H501.526M431.737 14.8947V84.6842M431.737 14.8947H501.526M431.737 84.6842V154.474M431.737 84.6842H501.526M431.737 154.474V224.263M431.737 154.474H501.526M431.737 224.263V294.053M431.737 224.263H501.526M431.737 294.053V363.842M431.737 294.053H501.526M431.737 363.842V433.632M431.737 363.842H501.526M431.737 433.632V503.421M431.737 433.632H501.526M431.737 503.421V573.21M431.737 503.421H501.526M431.737 573.21V643M431.737 573.21H501.526M431.737 643H501.526M501.526 -683V-613.211M501.526 -683H571.316M501.526 -613.211V-543.421M501.526 -613.211H571.316M501.526 -543.421V-473.632M501.526 -543.421H571.316M501.526 -473.632V-403.842M501.526 -473.632H571.316M501.526 -403.842V-334.053M501.526 -403.842H571.316M501.526 -334.053V-264.263M501.526 -334.053H571.316M501.526 -264.263V-194.474M501.526 -264.263H571.316M501.526 -194.474V-124.684M501.526 -194.474H571.316M501.526 -124.684V-54.8948M501.526 -124.684H571.316M501.526 -54.8948V14.8947M501.526 -54.8948H571.316M501.526 14.8947V84.6842M501.526 14.8947H571.316M501.526 84.6842V154.474M501.526 84.6842H571.316M501.526 154.474V224.263M501.526 154.474H571.316M501.526 224.263V294.053M501.526 224.263H571.316M501.526 294.053V363.842M501.526 294.053H571.316M501.526 363.842V433.632M501.526 363.842H571.316M501.526 433.632V503.421M501.526 433.632H571.316M501.526 503.421V573.21M501.526 503.421H571.316M501.526 573.21V643M501.526 573.21H571.316M501.526 643H571.316M571.316 -683V-613.211M571.316 -683H641.105M571.316 -613.211V-543.421M571.316 -613.211H641.105M571.316 -543.421V-473.632M571.316 -543.421H641.105M571.316 -473.632V-403.842M571.316 -473.632H641.105M571.316 -403.842V-334.053M571.316 -403.842H641.105M571.316 -334.053V-264.263M571.316 -334.053H641.105M571.316 -264.263V-194.474M571.316 -264.263H641.105M571.316 -194.474V-124.684M571.316 -194.474H641.105M571.316 -124.684V-54.8948M571.316 -124.684H641.105M571.316 -54.8948V14.8947M571.316 -54.8948H641.105M571.316 14.8947V84.6842M571.316 14.8947H641.105M571.316 84.6842V154.474M571.316 84.6842H641.105M571.316 154.474V224.263M571.316 154.474H641.105M571.316 224.263V294.053M571.316 224.263H641.105M571.316 294.053V363.842M571.316 294.053H641.105M571.316 363.842V433.632M571.316 363.842H641.105M571.316 433.632V503.421M571.316 433.632H641.105M571.316 503.421V573.21M571.316 503.421H641.105M571.316 573.21V643M571.316 573.21H641.105M571.316 643H641.105M641.105 -683V-613.211M641.105 -683H710.895M641.105 -613.211V-543.421M641.105 -613.211H710.895M641.105 -543.421V-473.632M641.105 -543.421H710.895M641.105 -473.632V-403.842M641.105 -473.632H710.895M641.105 -403.842V-334.053M641.105 -403.842H710.895M641.105 -334.053V-264.263M641.105 -334.053H710.895M641.105 -264.263V-194.474M641.105 -264.263H710.895M641.105 -194.474V-124.684M641.105 -194.474H710.895M641.105 -124.684V-54.8948M641.105 -124.684H710.895M641.105 -54.8948V14.8947M641.105 -54.8948H710.895M641.105 14.8947V84.6842M641.105 14.8947H710.895M641.105 84.6842V154.474M641.105 84.6842H710.895M641.105 154.474V224.263M641.105 154.474H710.895M641.105 224.263V294.053M641.105 224.263H710.895M641.105 294.053V363.842M641.105 294.053H710.895M641.105 363.842V433.632M641.105 363.842H710.895M641.105 433.632V503.421M641.105 433.632H710.895M641.105 503.421V573.21M641.105 503.421H710.895M641.105 573.21V643M641.105 573.21H710.895M641.105 643H710.895M710.895 -683V-613.211M710.895 -683H780.684M710.895 -613.211V-543.421M710.895 -613.211H780.684M710.895 -543.421V-473.632M710.895 -543.421H780.684M710.895 -473.632V-403.842M710.895 -473.632H780.684M710.895 -403.842V-334.053M710.895 -403.842H780.684M710.895 -334.053V-264.263M710.895 -334.053H780.684M710.895 -264.263V-194.474M710.895 -264.263H780.684M710.895 -194.474V-124.684M710.895 -194.474H780.684M710.895 -124.684V-54.8948M710.895 -124.684H780.684M710.895 -54.8948V14.8947M710.895 -54.8948H780.684M710.895 14.8947V84.6842M710.895 14.8947H780.684M710.895 84.6842V154.474M710.895 84.6842H780.684M710.895 154.474V224.263M710.895 154.474H780.684M710.895 224.263V294.053M710.895 224.263H780.684M710.895 294.053V363.842M710.895 294.053H780.684M710.895 363.842V433.632M710.895 363.842H780.684M710.895 433.632V503.421M710.895 433.632H780.684M710.895 503.421V573.21M710.895 503.421H780.684M710.895 573.21V643M710.895 573.21H780.684M710.895 643H780.684M780.684 -683V-613.211M780.684 -683H850.474M780.684 -613.211V-543.421M780.684 -613.211H850.474M780.684 -543.421V-473.632M780.684 -543.421H850.474M780.684 -473.632V-403.842M780.684 -473.632H850.474M780.684 -403.842V-334.053M780.684 -403.842H850.474M780.684 -334.053V-264.263M780.684 -334.053H850.474M780.684 -264.263V-194.474M780.684 -264.263H850.474M780.684 -194.474V-124.684M780.684 -194.474H850.474M780.684 -124.684V-54.8948M780.684 -124.684H850.474M780.684 -54.8948V14.8947M780.684 -54.8948H850.474M780.684 14.8947V84.6842M780.684 14.8947H850.474M780.684 84.6842V154.474M780.684 84.6842H850.474M780.684 154.474V224.263M780.684 154.474H850.474M780.684 224.263V294.053M780.684 224.263H850.474M780.684 294.053V363.842M780.684 294.053H850.474M780.684 363.842V433.632M780.684 363.842H850.474M780.684 433.632V503.421M780.684 433.632H850.474M780.684 503.421V573.21M780.684 503.421H850.474M780.684 573.21V643M780.684 573.21H850.474M780.684 643H850.474M850.474 -683V-613.211M850.474 -683H920.263M850.474 -613.211V-543.421M850.474 -613.211H920.263M850.474 -543.421V-473.632M850.474 -543.421H920.263M850.474 -473.632V-403.842M850.474 -473.632H920.263M850.474 -403.842V-334.053M850.474 -403.842H920.263M850.474 -334.053V-264.263M850.474 -334.053H920.263M850.474 -264.263V-194.474M850.474 -264.263H920.263M850.474 -194.474V-124.684M850.474 -194.474H920.263M850.474 -124.684V-54.8948M850.474 -124.684H920.263M850.474 -54.8948V14.8947M850.474 -54.8948H920.263M850.474 14.8947V84.6842M850.474 14.8947H920.263M850.474 84.6842V154.474M850.474 84.6842H920.263M850.474 154.474V224.263M850.474 154.474H920.263M850.474 224.263V294.053M850.474 224.263H920.263M850.474 294.053V363.842M850.474 294.053H920.263M850.474 363.842V433.632M850.474 363.842H920.263M850.474 433.632V503.421M850.474 433.632H920.263M850.474 503.421V573.21M850.474 503.421H920.263M850.474 573.21V643M850.474 573.21H920.263M850.474 643H920.263M920.263 -683V-613.211M920.263 -683H990.053M920.263 -613.211V-543.421M920.263 -613.211H990.053M920.263 -543.421V-473.632M920.263 -543.421H990.053M920.263 -473.632V-403.842M920.263 -473.632H990.053M920.263 -403.842V-334.053M920.263 -403.842H990.053M920.263 -334.053V-264.263M920.263 -334.053H990.053M920.263 -264.263V-194.474M920.263 -264.263H990.053M920.263 -194.474V-124.684M920.263 -194.474H990.053M920.263 -124.684V-54.8948M920.263 -124.684H990.053M920.263 -54.8948V14.8947M920.263 -54.8948H990.053M920.263 14.8947V84.6842M920.263 14.8947H990.053M920.263 84.6842V154.474M920.263 84.6842H990.053M920.263 154.474V224.263M920.263 154.474H990.053M920.263 224.263V294.053M920.263 224.263H990.053M920.263 294.053V363.842M920.263 294.053H990.053M920.263 363.842V433.632M920.263 363.842H990.053M920.263 433.632V503.421M920.263 433.632H990.053M920.263 503.421V573.21M920.263 503.421H990.053M920.263 573.21V643M920.263 573.21H990.053M920.263 643H990.053M990.053 -683V-613.211M990.053 -683H1059.84M990.053 -613.211V-543.421M990.053 -613.211H1059.84M990.053 -543.421V-473.632M990.053 -543.421H1059.84M990.053 -473.632V-403.842M990.053 -473.632H1059.84M990.053 -403.842V-334.053M990.053 -403.842H1059.84M990.053 -334.053V-264.263M990.053 -334.053H1059.84M990.053 -264.263V-194.474M990.053 -264.263H1059.84M990.053 -194.474V-124.684M990.053 -194.474H1059.84M990.053 -124.684V-54.8948M990.053 -124.684H1059.84M990.053 -54.8948V14.8947M990.053 -54.8948H1059.84M990.053 14.8947V84.6842M990.053 14.8947H1059.84M990.053 84.6842V154.474M990.053 84.6842H1059.84M990.053 154.474V224.263M990.053 154.474H1059.84M990.053 224.263V294.053M990.053 224.263H1059.84M990.053 294.053V363.842M990.053 294.053H1059.84M990.053 363.842V433.632M990.053 363.842H1059.84M990.053 433.632V503.421M990.053 433.632H1059.84M990.053 503.421V573.21M990.053 503.421H1059.84M990.053 573.21V643M990.053 573.21H1059.84M990.053 643H1059.84M1059.84 -683V-613.211M1059.84 -683H1129.63M1059.84 -613.211V-543.421M1059.84 -613.211H1129.63M1059.84 -543.421V-473.632M1059.84 -543.421H1129.63M1059.84 -473.632V-403.842M1059.84 -473.632H1129.63M1059.84 -403.842V-334.053M1059.84 -403.842H1129.63M1059.84 -334.053V-264.263M1059.84 -334.053H1129.63M1059.84 -264.263V-194.474M1059.84 -264.263H1129.63M1059.84 -194.474V-124.684M1059.84 -194.474H1129.63M1059.84 -124.684V-54.8948M1059.84 -124.684H1129.63M1059.84 -54.8948V14.8947M1059.84 -54.8948H1129.63M1059.84 14.8947V84.6842M1059.84 14.8947H1129.63M1059.84 84.6842V154.474M1059.84 84.6842H1129.63M1059.84 154.474V224.263M1059.84 154.474H1129.63M1059.84 224.263V294.053M1059.84 224.263H1129.63M1059.84 294.053V363.842M1059.84 294.053H1129.63M1059.84 363.842V433.632M1059.84 363.842H1129.63M1059.84 433.632V503.421M1059.84 433.632H1129.63M1059.84 503.421V573.21M1059.84 503.421H1129.63M1059.84 573.21V643M1059.84 573.21H1129.63M1059.84 643H1129.63M1129.63 -683V-613.211M1129.63 -683H1199.42M1129.63 -613.211V-543.421M1129.63 -613.211H1199.42M1129.63 -543.421V-473.632M1129.63 -543.421H1199.42M1129.63 -473.632V-403.842M1129.63 -473.632H1199.42M1129.63 -403.842V-334.053M1129.63 -403.842H1199.42M1129.63 -334.053V-264.263M1129.63 -334.053H1199.42M1129.63 -264.263V-194.474M1129.63 -264.263H1199.42M1129.63 -194.474V-124.684M1129.63 -194.474H1199.42M1129.63 -124.684V-54.8948M1129.63 -124.684H1199.42M1129.63 -54.8948V14.8947M1129.63 -54.8948H1199.42M1129.63 14.8947V84.6842M1129.63 14.8947H1199.42M1129.63 84.6842V154.474M1129.63 84.6842H1199.42M1129.63 154.474V224.263M1129.63 154.474H1199.42M1129.63 224.263V294.053M1129.63 224.263H1199.42M1129.63 294.053V363.842M1129.63 294.053H1199.42M1129.63 363.842V433.632M1129.63 363.842H1199.42M1129.63 433.632V503.421M1129.63 433.632H1199.42M1129.63 503.421V573.21M1129.63 503.421H1199.42M1129.63 573.21V643M1129.63 573.21H1199.42M1129.63 643H1199.42M1199.42 -683V-613.211M1199.42 -683H1269.21M1199.42 -613.211V-543.421M1199.42 -613.211H1269.21M1199.42 -543.421V-473.632M1199.42 -543.421H1269.21M1199.42 -473.632V-403.842M1199.42 -473.632H1269.21M1199.42 -403.842V-334.053M1199.42 -403.842H1269.21M1199.42 -334.053V-264.263M1199.42 -334.053H1269.21M1199.42 -264.263V-194.474M1199.42 -264.263H1269.21M1199.42 -194.474V-124.684M1199.42 -194.474H1269.21M1199.42 -124.684V-54.8948M1199.42 -124.684H1269.21M1199.42 -54.8948V14.8947M1199.42 -54.8948H1269.21M1199.42 14.8947V84.6842M1199.42 14.8947H1269.21M1199.42 84.6842V154.474M1199.42 84.6842H1269.21M1199.42 154.474V224.263M1199.42 154.474H1269.21M1199.42 224.263V294.053M1199.42 224.263H1269.21M1199.42 294.053V363.842M1199.42 294.053H1269.21M1199.42 363.842V433.632M1199.42 363.842H1269.21M1199.42 433.632V503.421M1199.42 433.632H1269.21M1199.42 503.421V573.21M1199.42 503.421H1269.21M1199.42 573.21V643M1199.42 573.21H1269.21M1199.42 643H1269.21M1269.21 -683V-613.211M1269.21 -683H1339M1269.21 -613.211V-543.421M1269.21 -613.211H1339M1269.21 -543.421V-473.632M1269.21 -543.421H1339M1269.21 -473.632V-403.842M1269.21 -473.632H1339M1269.21 -403.842V-334.053M1269.21 -403.842H1339M1269.21 -334.053V-264.263M1269.21 -334.053H1339M1269.21 -264.263V-194.474M1269.21 -264.263H1339M1269.21 -194.474V-124.684M1269.21 -194.474H1339M1269.21 -124.684V-54.8948M1269.21 -124.684H1339M1269.21 -54.8948V14.8947M1269.21 -54.8948H1339M1269.21 14.8947V84.6842M1269.21 14.8947H1339M1269.21 84.6842V154.474M1269.21 84.6842H1339M1269.21 154.474V224.263M1269.21 154.474H1339M1269.21 224.263V294.053M1269.21 224.263H1339M1269.21 294.053V363.842M1269.21 294.053H1339M1269.21 363.842V433.632M1269.21 363.842H1339M1269.21 433.632V503.421M1269.21 433.632H1339M1269.21 503.421V573.21M1269.21 503.421H1339M1269.21 573.21V643M1269.21 573.21H1339M1269.21 643H1339M1339 -683V-613.211M1339 -683H1408.79M1339 -613.211V-543.421M1339 -613.211H1408.79M1339 -543.421V-473.632M1339 -543.421H1408.79M1339 -473.632V-403.842M1339 -473.632H1408.79M1339 -403.842V-334.053M1339 -403.842H1408.79M1339 -334.053V-264.263M1339 -334.053H1408.79M1339 -264.263V-194.474M1339 -264.263H1408.79M1339 -194.474V-124.684M1339 -194.474H1408.79M1339 -124.684V-54.8948M1339 -124.684H1408.79M1339 -54.8948V14.8947M1339 -54.8948H1408.79M1339 14.8947V84.6842M1339 14.8947H1408.79M1339 84.6842V154.474M1339 84.6842H1408.79M1339 154.474V224.263M1339 154.474H1408.79M1339 224.263V294.053M1339 224.263H1408.79M1339 294.053V363.842M1339 294.053H1408.79M1339 363.842V433.632M1339 363.842H1408.79M1339 433.632V503.421M1339 433.632H1408.79M1339 503.421V573.21M1339 503.421H1408.79M1339 573.21V643M1339 573.21H1408.79M1339 643H1408.79M1408.79 -683V-613.211M1408.79 -683H1478.58M1408.79 -613.211V-543.421M1408.79 -613.211H1478.58M1408.79 -543.421V-473.632M1408.79 -543.421H1478.58M1408.79 -473.632V-403.842M1408.79 -473.632H1478.58M1408.79 -403.842V-334.053M1408.79 -403.842H1478.58M1408.79 -334.053V-264.263M1408.79 -334.053H1478.58M1408.79 -264.263V-194.474M1408.79 -264.263H1478.58M1408.79 -194.474V-124.684M1408.79 -194.474H1478.58M1408.79 -124.684V-54.8948M1408.79 -124.684H1478.58M1408.79 -54.8948V14.8947M1408.79 -54.8948H1478.58M1408.79 14.8947V84.6842M1408.79 14.8947H1478.58M1408.79 84.6842V154.474M1408.79 84.6842H1478.58M1408.79 154.474V224.263M1408.79 154.474H1478.58M1408.79 224.263V294.053M1408.79 224.263H1478.58M1408.79 294.053V363.842M1408.79 294.053H1478.58M1408.79 363.842V433.632M1408.79 363.842H1478.58M1408.79 433.632V503.421M1408.79 433.632H1478.58M1408.79 503.421V573.21M1408.79 503.421H1478.58M1408.79 573.21V643M1408.79 573.21H1478.58M1408.79 643H1478.58M1478.58 -683V-613.211M1478.58 -683H1548.37M1478.58 -613.211V-543.421M1478.58 -613.211H1548.37M1478.58 -543.421V-473.632M1478.58 -543.421H1548.37M1478.58 -473.632V-403.842M1478.58 -473.632H1548.37M1478.58 -403.842V-334.053M1478.58 -403.842H1548.37M1478.58 -334.053V-264.263M1478.58 -334.053H1548.37M1478.58 -264.263V-194.474M1478.58 -264.263H1548.37M1478.58 -194.474V-124.684M1478.58 -194.474H1548.37M1478.58 -124.684V-54.8948M1478.58 -124.684H1548.37M1478.58 -54.8948V14.8947M1478.58 -54.8948H1548.37M1478.58 14.8947V84.6842M1478.58 14.8947H1548.37M1478.58 84.6842V154.474M1478.58 84.6842H1548.37M1478.58 154.474V224.263M1478.58 154.474H1548.37M1478.58 224.263V294.053M1478.58 224.263H1548.37M1478.58 294.053V363.842M1478.58 294.053H1548.37M1478.58 363.842V433.632M1478.58 363.842H1548.37M1478.58 433.632V503.421M1478.58 433.632H1548.37M1478.58 503.421V573.21M1478.58 503.421H1548.37M1478.58 573.21V643M1478.58 573.21H1548.37M1478.58 643H1548.37M1548.37 -683V-613.211M1548.37 -683H1618.16M1548.37 -613.211V-543.421M1548.37 -613.211H1618.16M1548.37 -543.421V-473.632M1548.37 -543.421H1618.16M1548.37 -473.632V-403.842M1548.37 -473.632H1618.16M1548.37 -403.842V-334.053M1548.37 -403.842H1618.16M1548.37 -334.053V-264.263M1548.37 -334.053H1618.16M1548.37 -264.263V-194.474M1548.37 -264.263H1618.16M1548.37 -194.474V-124.684M1548.37 -194.474H1618.16M1548.37 -124.684V-54.8948M1548.37 -124.684H1618.16M1548.37 -54.8948V14.8947M1548.37 -54.8948H1618.16M1548.37 14.8947V84.6842M1548.37 14.8947H1618.16M1548.37 84.6842V154.474M1548.37 84.6842H1618.16M1548.37 154.474V224.263M1548.37 154.474H1618.16M1548.37 224.263V294.053M1548.37 224.263H1618.16M1548.37 294.053V363.842M1548.37 294.053H1618.16M1548.37 363.842V433.632M1548.37 363.842H1618.16M1548.37 433.632V503.421M1548.37 433.632H1618.16M1548.37 503.421V573.21M1548.37 503.421H1618.16M1548.37 573.21V643M1548.37 573.21H1618.16M1548.37 643H1618.16M1618.16 -683V-613.211M1618.16 -683H1687.95M1618.16 -613.211V-543.421M1618.16 -613.211H1687.95M1618.16 -543.421V-473.632M1618.16 -543.421H1687.95M1618.16 -473.632V-403.842M1618.16 -473.632H1687.95M1618.16 -403.842V-334.053M1618.16 -403.842H1687.95M1618.16 -334.053V-264.263M1618.16 -334.053H1687.95M1618.16 -264.263V-194.474M1618.16 -264.263H1687.95M1618.16 -194.474V-124.684M1618.16 -194.474H1687.95M1618.16 -124.684V-54.8948M1618.16 -124.684H1687.95M1618.16 -54.8948V14.8947M1618.16 -54.8948H1687.95M1618.16 14.8947V84.6842M1618.16 14.8947H1687.95M1618.16 84.6842V154.474M1618.16 84.6842H1687.95M1618.16 154.474V224.263M1618.16 154.474H1687.95M1618.16 224.263V294.053M1618.16 224.263H1687.95M1618.16 294.053V363.842M1618.16 294.053H1687.95M1618.16 363.842V433.632M1618.16 363.842H1687.95M1618.16 433.632V503.421M1618.16 433.632H1687.95M1618.16 503.421V573.21M1618.16 503.421H1687.95M1618.16 573.21V643M1618.16 573.21H1687.95M1618.16 643H1687.95M1687.95 -683V-613.211M1687.95 -683H1757.74V-613.211M1687.95 -613.211V-543.421M1687.95 -613.211H1757.74M1687.95 -543.421V-473.632M1687.95 -543.421H1757.74M1687.95 -473.632V-403.842M1687.95 -473.632H1757.74M1687.95 -403.842V-334.053M1687.95 -403.842H1757.74M1687.95 -334.053V-264.263M1687.95 -334.053H1757.74M1687.95 -264.263V-194.474M1687.95 -264.263H1757.74M1687.95 -194.474V-124.684M1687.95 -194.474H1757.74M1687.95 -124.684V-54.8948M1687.95 -124.684H1757.74M1687.95 -54.8948V14.8947M1687.95 -54.8948H1757.74M1687.95 14.8947V84.6842M1687.95 14.8947H1757.74M1687.95 84.6842V154.474M1687.95 84.6842H1757.74M1687.95 154.474V224.263M1687.95 154.474H1757.74M1687.95 224.263V294.053M1687.95 224.263H1757.74M1687.95 294.053V363.842M1687.95 294.053H1757.74M1687.95 363.842V433.632M1687.95 363.842H1757.74M1687.95 433.632V503.421M1687.95 433.632H1757.74M1687.95 503.421V573.21M1687.95 503.421H1757.74M1687.95 573.21V643M1687.95 573.21H1757.74M1687.95 643H1757.74V573.21M1757.74 -613.211V-543.421M1757.74 -543.421V-473.632M1757.74 -473.632V-403.842M1757.74 -403.842V-334.053M1757.74 -334.053V-264.263M1757.74 -264.263V-194.474M1757.74 -194.474V-124.684M1757.74 -124.684V-54.8948M1757.74 -54.8948V14.8947M1757.74 14.8947V84.6842M1757.74 84.6842V154.474M1757.74 154.474V224.263M1757.74 224.263V294.053M1757.74 294.053V363.842M1757.74 363.842V433.632M1757.74 433.632V503.421M1757.74 503.421V573.21" stroke="url(#paint0_radial_1809_568)" stroke-width="1.74474"/>
</g>
<defs>
<radialGradient id="paint0_radial_1809_568" cx="0" cy="0" r="1" gradientUnits="userSpaceOnUse" gradientTransform="translate(222 167.5) rotate(-90) scale(166.5 311.362)">
<stop stop-color="#4B991E"/>
<stop offset="1" stop-color="white" stop-opacity="0"/>
</radialGradient>
<clipPath id="clip0_1809_568">
<rect width="422" height="253" fill="white"/>
</clipPath>
</defs>
</svg>
