<svg width="583" height="644" viewBox="0 0 583 644" fill="none" xmlns="http://www.w3.org/2000/svg">
<path d="M516.161 109.404C557.898 132.818 583.506 177.141 582.929 224.968L581.831 316.062L582.992 419.101C583.53 466.892 557.927 511.166 516.222 534.562L436.665 579.193L358.268 625.691C317.108 650.103 265.892 650.103 224.731 625.691L146.335 579.193L66.7781 534.562C25.0734 511.166 -0.53005 466.892 0.00828246 419.102L1.16905 316.062L0.0704858 224.968C-0.506233 177.141 25.1019 132.818 66.839 109.404L146.334 64.8072L224.731 18.3094C265.892 -6.10315 317.108 -6.10315 358.269 18.3094L436.665 64.8072L516.161 109.404Z" fill="url(#paint0_linear_1809_438)" fill-opacity="0.4"/>
<defs>
<linearGradient id="paint0_linear_1809_438" x1="309.5" y1="-175.5" x2="634.936" y2="244.974" gradientUnits="userSpaceOnUse">
<stop stop-color="#D6EEC8"/>
<stop offset="1" stop-color="#F9FFF5" stop-opacity="0.58"/>
</linearGradient>
</defs>
</svg>
