<svg width="365" height="271" viewBox="0 0 365 271" fill="none" xmlns="http://www.w3.org/2000/svg">
<g clip-path="url(#clip0_1809_567)">
<path d="M-1302.21 -665H-1372V-595.211M-1302.21 -665V-595.211M-1302.21 -665H-1232.42M-1302.21 -595.211H-1372M-1302.21 -595.211V-525.421M-1302.21 -595.211H-1232.42M-1372 -595.211V-525.421M-1302.21 -525.421H-1372M-1302.21 -525.421V-455.632M-1302.21 -525.421H-1232.42M-1372 -525.421V-455.632M-1302.21 -455.632H-1372M-1302.21 -455.632V-385.842M-1302.21 -455.632H-1232.42M-1372 -455.632V-385.842M-1302.21 -385.842H-1372M-1302.21 -385.842V-316.053M-1302.21 -385.842H-1232.42M-1372 -385.842V-316.053M-1302.21 -316.053H-1372M-1302.21 -316.053V-246.263M-1302.21 -316.053H-1232.42M-1372 -316.053V-246.263M-1302.21 -246.263H-1372M-1302.21 -246.263V-176.474M-1302.21 -246.263H-1232.42M-1372 -246.263V-176.474M-1302.21 -176.474H-1372M-1302.21 -176.474V-106.684M-1302.21 -176.474H-1232.42M-1372 -176.474V-106.684M-1302.21 -106.684H-1372M-1302.21 -106.684V-36.8948M-1302.21 -106.684H-1232.42M-1372 -106.684V-36.8948M-1302.21 -36.8948H-1372M-1302.21 -36.8948V32.8947M-1302.21 -36.8948H-1232.42M-1372 -36.8948V32.8947M-1302.21 32.8947H-1372M-1302.21 32.8947V102.684M-1302.21 32.8947H-1232.42M-1372 32.8947V102.684M-1302.21 102.684H-1372M-1302.21 102.684V172.474M-1302.21 102.684H-1232.42M-1372 102.684V172.474M-1302.21 172.474H-1372M-1302.21 172.474V242.263M-1302.21 172.474H-1232.42M-1372 172.474V242.263M-1302.21 242.263H-1372M-1302.21 242.263V312.053M-1302.21 242.263H-1232.42M-1372 242.263V312.053M-1302.21 312.053H-1372M-1302.21 312.053V381.842M-1302.21 312.053H-1232.42M-1372 312.053V381.842M-1302.21 381.842H-1372M-1302.21 381.842V451.632M-1302.21 381.842H-1232.42M-1372 381.842V451.632M-1302.21 451.632H-1372M-1302.21 451.632V521.421M-1302.21 451.632H-1232.42M-1372 451.632V521.421M-1302.21 521.421H-1372M-1302.21 521.421V591.21M-1302.21 521.421H-1232.42M-1372 521.421V591.21M-1302.21 591.21H-1372M-1302.21 591.21V661M-1302.21 591.21H-1232.42M-1372 591.21V661H-1302.21M-1302.21 661H-1232.42M-1232.42 -665V-595.211M-1232.42 -665H-1162.63M-1232.42 -595.211V-525.421M-1232.42 -595.211H-1162.63M-1232.42 -525.421V-455.632M-1232.42 -525.421H-1162.63M-1232.42 -455.632V-385.842M-1232.42 -455.632H-1162.63M-1232.42 -385.842V-316.053M-1232.42 -385.842H-1162.63M-1232.42 -316.053V-246.263M-1232.42 -316.053H-1162.63M-1232.42 -246.263V-176.474M-1232.42 -246.263H-1162.63M-1232.42 -176.474V-106.684M-1232.42 -176.474H-1162.63M-1232.42 -106.684V-36.8948M-1232.42 -106.684H-1162.63M-1232.42 -36.8948V32.8947M-1232.42 -36.8948H-1162.63M-1232.42 32.8947V102.684M-1232.42 32.8947H-1162.63M-1232.42 102.684V172.474M-1232.42 102.684H-1162.63M-1232.42 172.474V242.263M-1232.42 172.474H-1162.63M-1232.42 242.263V312.053M-1232.42 242.263H-1162.63M-1232.42 312.053V381.842M-1232.42 312.053H-1162.63M-1232.42 381.842V451.632M-1232.42 381.842H-1162.63M-1232.42 451.632V521.421M-1232.42 451.632H-1162.63M-1232.42 521.421V591.21M-1232.42 521.421H-1162.63M-1232.42 591.21V661M-1232.42 591.21H-1162.63M-1232.42 661H-1162.63M-1162.63 -665V-595.211M-1162.63 -665H-1092.84M-1162.63 -595.211V-525.421M-1162.63 -595.211H-1092.84M-1162.63 -525.421V-455.632M-1162.63 -525.421H-1092.84M-1162.63 -455.632V-385.842M-1162.63 -455.632H-1092.84M-1162.63 -385.842V-316.053M-1162.63 -385.842H-1092.84M-1162.63 -316.053V-246.263M-1162.63 -316.053H-1092.84M-1162.63 -246.263V-176.474M-1162.63 -246.263H-1092.84M-1162.63 -176.474V-106.684M-1162.63 -176.474H-1092.84M-1162.63 -106.684V-36.8948M-1162.63 -106.684H-1092.84M-1162.63 -36.8948V32.8947M-1162.63 -36.8948H-1092.84M-1162.63 32.8947V102.684M-1162.63 32.8947H-1092.84M-1162.63 102.684V172.474M-1162.63 102.684H-1092.84M-1162.63 172.474V242.263M-1162.63 172.474H-1092.84M-1162.63 242.263V312.053M-1162.63 242.263H-1092.84M-1162.63 312.053V381.842M-1162.63 312.053H-1092.84M-1162.63 381.842V451.632M-1162.63 381.842H-1092.84M-1162.63 451.632V521.421M-1162.63 451.632H-1092.84M-1162.63 521.421V591.21M-1162.63 521.421H-1092.84M-1162.63 591.21V661M-1162.63 591.21H-1092.84M-1162.63 661H-1092.84M-1092.84 -665V-595.211M-1092.84 -665H-1023.05M-1092.84 -595.211V-525.421M-1092.84 -595.211H-1023.05M-1092.84 -525.421V-455.632M-1092.84 -525.421H-1023.05M-1092.84 -455.632V-385.842M-1092.84 -455.632H-1023.05M-1092.84 -385.842V-316.053M-1092.84 -385.842H-1023.05M-1092.84 -316.053V-246.263M-1092.84 -316.053H-1023.05M-1092.84 -246.263V-176.474M-1092.84 -246.263H-1023.05M-1092.84 -176.474V-106.684M-1092.84 -176.474H-1023.05M-1092.84 -106.684V-36.8948M-1092.84 -106.684H-1023.05M-1092.84 -36.8948V32.8947M-1092.84 -36.8948H-1023.05M-1092.84 32.8947V102.684M-1092.84 32.8947H-1023.05M-1092.84 102.684V172.474M-1092.84 102.684H-1023.05M-1092.84 172.474V242.263M-1092.84 172.474H-1023.05M-1092.84 242.263V312.053M-1092.84 242.263H-1023.05M-1092.84 312.053V381.842M-1092.84 312.053H-1023.05M-1092.84 381.842V451.632M-1092.84 381.842H-1023.05M-1092.84 451.632V521.421M-1092.84 451.632H-1023.05M-1092.84 521.421V591.21M-1092.84 521.421H-1023.05M-1092.84 591.21V661M-1092.84 591.21H-1023.05M-1092.84 661H-1023.05M-1023.05 -665V-595.211M-1023.05 -665H-953.263M-1023.05 -595.211V-525.421M-1023.05 -595.211H-953.263M-1023.05 -525.421V-455.632M-1023.05 -525.421H-953.263M-1023.05 -455.632V-385.842M-1023.05 -455.632H-953.263M-1023.05 -385.842V-316.053M-1023.05 -385.842H-953.263M-1023.05 -316.053V-246.263M-1023.05 -316.053H-953.263M-1023.05 -246.263V-176.474M-1023.05 -246.263H-953.263M-1023.05 -176.474V-106.684M-1023.05 -176.474H-953.263M-1023.05 -106.684V-36.8948M-1023.05 -106.684H-953.263M-1023.05 -36.8948V32.8947M-1023.05 -36.8948H-953.263M-1023.05 32.8947V102.684M-1023.05 32.8947H-953.263M-1023.05 102.684V172.474M-1023.05 102.684H-953.263M-1023.05 172.474V242.263M-1023.05 172.474H-953.263M-1023.05 242.263V312.053M-1023.05 242.263H-953.263M-1023.05 312.053V381.842M-1023.05 312.053H-953.263M-1023.05 381.842V451.632M-1023.05 381.842H-953.263M-1023.05 451.632V521.421M-1023.05 451.632H-953.263M-1023.05 521.421V591.21M-1023.05 521.421H-953.263M-1023.05 591.21V661M-1023.05 591.21H-953.263M-1023.05 661H-953.263M-953.263 -665V-595.211M-953.263 -665H-883.474M-953.263 -595.211V-525.421M-953.263 -595.211H-883.474M-953.263 -525.421V-455.632M-953.263 -525.421H-883.474M-953.263 -455.632V-385.842M-953.263 -455.632H-883.474M-953.263 -385.842V-316.053M-953.263 -385.842H-883.474M-953.263 -316.053V-246.263M-953.263 -316.053H-883.474M-953.263 -246.263V-176.474M-953.263 -246.263H-883.474M-953.263 -176.474V-106.684M-953.263 -176.474H-883.474M-953.263 -106.684V-36.8948M-953.263 -106.684H-883.474M-953.263 -36.8948V32.8947M-953.263 -36.8948H-883.474M-953.263 32.8947V102.684M-953.263 32.8947H-883.474M-953.263 102.684V172.474M-953.263 102.684H-883.474M-953.263 172.474V242.263M-953.263 172.474H-883.474M-953.263 242.263V312.053M-953.263 242.263H-883.474M-953.263 312.053V381.842M-953.263 312.053H-883.474M-953.263 381.842V451.632M-953.263 381.842H-883.474M-953.263 451.632V521.421M-953.263 451.632H-883.474M-953.263 521.421V591.21M-953.263 521.421H-883.474M-953.263 591.21V661M-953.263 591.21H-883.474M-953.263 661H-883.474M-883.474 -665V-595.211M-883.474 -665H-813.684M-883.474 -595.211V-525.421M-883.474 -595.211H-813.684M-883.474 -525.421V-455.632M-883.474 -525.421H-813.684M-883.474 -455.632V-385.842M-883.474 -455.632H-813.684M-883.474 -385.842V-316.053M-883.474 -385.842H-813.684M-883.474 -316.053V-246.263M-883.474 -316.053H-813.684M-883.474 -246.263V-176.474M-883.474 -246.263H-813.684M-883.474 -176.474V-106.684M-883.474 -176.474H-813.684M-883.474 -106.684V-36.8948M-883.474 -106.684H-813.684M-883.474 -36.8948V32.8947M-883.474 -36.8948H-813.684M-883.474 32.8947V102.684M-883.474 32.8947H-813.684M-883.474 102.684V172.474M-883.474 102.684H-813.684M-883.474 172.474V242.263M-883.474 172.474H-813.684M-883.474 242.263V312.053M-883.474 242.263H-813.684M-883.474 312.053V381.842M-883.474 312.053H-813.684M-883.474 381.842V451.632M-883.474 381.842H-813.684M-883.474 451.632V521.421M-883.474 451.632H-813.684M-883.474 521.421V591.21M-883.474 521.421H-813.684M-883.474 591.21V661M-883.474 591.21H-813.684M-883.474 661H-813.684M-813.684 -665V-595.211M-813.684 -665H-743.895M-813.684 -595.211V-525.421M-813.684 -595.211H-743.895M-813.684 -525.421V-455.632M-813.684 -525.421H-743.895M-813.684 -455.632V-385.842M-813.684 -455.632H-743.895M-813.684 -385.842V-316.053M-813.684 -385.842H-743.895M-813.684 -316.053V-246.263M-813.684 -316.053H-743.895M-813.684 -246.263V-176.474M-813.684 -246.263H-743.895M-813.684 -176.474V-106.684M-813.684 -176.474H-743.895M-813.684 -106.684V-36.8948M-813.684 -106.684H-743.895M-813.684 -36.8948V32.8947M-813.684 -36.8948H-743.895M-813.684 32.8947V102.684M-813.684 32.8947H-743.895M-813.684 102.684V172.474M-813.684 102.684H-743.895M-813.684 172.474V242.263M-813.684 172.474H-743.895M-813.684 242.263V312.053M-813.684 242.263H-743.895M-813.684 312.053V381.842M-813.684 312.053H-743.895M-813.684 381.842V451.632M-813.684 381.842H-743.895M-813.684 451.632V521.421M-813.684 451.632H-743.895M-813.684 521.421V591.21M-813.684 521.421H-743.895M-813.684 591.21V661M-813.684 591.21H-743.895M-813.684 661H-743.895M-743.895 -665V-595.211M-743.895 -665H-674.105M-743.895 -595.211V-525.421M-743.895 -595.211H-674.105M-743.895 -525.421V-455.632M-743.895 -525.421H-674.105M-743.895 -455.632V-385.842M-743.895 -455.632H-674.105M-743.895 -385.842V-316.053M-743.895 -385.842H-674.105M-743.895 -316.053V-246.263M-743.895 -316.053H-674.105M-743.895 -246.263V-176.474M-743.895 -246.263H-674.105M-743.895 -176.474V-106.684M-743.895 -176.474H-674.105M-743.895 -106.684V-36.8948M-743.895 -106.684H-674.105M-743.895 -36.8948V32.8947M-743.895 -36.8948H-674.105M-743.895 32.8947V102.684M-743.895 32.8947H-674.105M-743.895 102.684V172.474M-743.895 102.684H-674.105M-743.895 172.474V242.263M-743.895 172.474H-674.105M-743.895 242.263V312.053M-743.895 242.263H-674.105M-743.895 312.053V381.842M-743.895 312.053H-674.105M-743.895 381.842V451.632M-743.895 381.842H-674.105M-743.895 451.632V521.421M-743.895 451.632H-674.105M-743.895 521.421V591.21M-743.895 521.421H-674.105M-743.895 591.21V661M-743.895 591.21H-674.105M-743.895 661H-674.105M-674.105 -665V-595.211M-674.105 -665H-604.316M-674.105 -595.211V-525.421M-674.105 -595.211H-604.316M-674.105 -525.421V-455.632M-674.105 -525.421H-604.316M-674.105 -455.632V-385.842M-674.105 -455.632H-604.316M-674.105 -385.842V-316.053M-674.105 -385.842H-604.316M-674.105 -316.053V-246.263M-674.105 -316.053H-604.316M-674.105 -246.263V-176.474M-674.105 -246.263H-604.316M-674.105 -176.474V-106.684M-674.105 -176.474H-604.316M-674.105 -106.684V-36.8948M-674.105 -106.684H-604.316M-674.105 -36.8948V32.8947M-674.105 -36.8948H-604.316M-674.105 32.8947V102.684M-674.105 32.8947H-604.316M-674.105 102.684V172.474M-674.105 102.684H-604.316M-674.105 172.474V242.263M-674.105 172.474H-604.316M-674.105 242.263V312.053M-674.105 242.263H-604.316M-674.105 312.053V381.842M-674.105 312.053H-604.316M-674.105 381.842V451.632M-674.105 381.842H-604.316M-674.105 451.632V521.421M-674.105 451.632H-604.316M-674.105 521.421V591.21M-674.105 521.421H-604.316M-674.105 591.21V661M-674.105 591.21H-604.316M-674.105 661H-604.316M-604.316 -665V-595.211M-604.316 -665H-534.526M-604.316 -595.211V-525.421M-604.316 -595.211H-534.526M-604.316 -525.421V-455.632M-604.316 -525.421H-534.526M-604.316 -455.632V-385.842M-604.316 -455.632H-534.526M-604.316 -385.842V-316.053M-604.316 -385.842H-534.526M-604.316 -316.053V-246.263M-604.316 -316.053H-534.526M-604.316 -246.263V-176.474M-604.316 -246.263H-534.526M-604.316 -176.474V-106.684M-604.316 -176.474H-534.526M-604.316 -106.684V-36.8948M-604.316 -106.684H-534.526M-604.316 -36.8948V32.8947M-604.316 -36.8948H-534.526M-604.316 32.8947V102.684M-604.316 32.8947H-534.526M-604.316 102.684V172.474M-604.316 102.684H-534.526M-604.316 172.474V242.263M-604.316 172.474H-534.526M-604.316 242.263V312.053M-604.316 242.263H-534.526M-604.316 312.053V381.842M-604.316 312.053H-534.526M-604.316 381.842V451.632M-604.316 381.842H-534.526M-604.316 451.632V521.421M-604.316 451.632H-534.526M-604.316 521.421V591.21M-604.316 521.421H-534.526M-604.316 591.21V661M-604.316 591.21H-534.526M-604.316 661H-534.526M-534.526 -665V-595.211M-534.526 -665H-464.737M-534.526 -595.211V-525.421M-534.526 -595.211H-464.737M-534.526 -525.421V-455.632M-534.526 -525.421H-464.737M-534.526 -455.632V-385.842M-534.526 -455.632H-464.737M-534.526 -385.842V-316.053M-534.526 -385.842H-464.737M-534.526 -316.053V-246.263M-534.526 -316.053H-464.737M-534.526 -246.263V-176.474M-534.526 -246.263H-464.737M-534.526 -176.474V-106.684M-534.526 -176.474H-464.737M-534.526 -106.684V-36.8948M-534.526 -106.684H-464.737M-534.526 -36.8948V32.8947M-534.526 -36.8948H-464.737M-534.526 32.8947V102.684M-534.526 32.8947H-464.737M-534.526 102.684V172.474M-534.526 102.684H-464.737M-534.526 172.474V242.263M-534.526 172.474H-464.737M-534.526 242.263V312.053M-534.526 242.263H-464.737M-534.526 312.053V381.842M-534.526 312.053H-464.737M-534.526 381.842V451.632M-534.526 381.842H-464.737M-534.526 451.632V521.421M-534.526 451.632H-464.737M-534.526 521.421V591.21M-534.526 521.421H-464.737M-534.526 591.21V661M-534.526 591.21H-464.737M-534.526 661H-464.737M-464.737 -665V-595.211M-464.737 -665H-394.947M-464.737 -595.211V-525.421M-464.737 -595.211H-394.947M-464.737 -525.421V-455.632M-464.737 -525.421H-394.947M-464.737 -455.632V-385.842M-464.737 -455.632H-394.947M-464.737 -385.842V-316.053M-464.737 -385.842H-394.947M-464.737 -316.053V-246.263M-464.737 -316.053H-394.947M-464.737 -246.263V-176.474M-464.737 -246.263H-394.947M-464.737 -176.474V-106.684M-464.737 -176.474H-394.947M-464.737 -106.684V-36.8948M-464.737 -106.684H-394.947M-464.737 -36.8948V32.8947M-464.737 -36.8948H-394.947M-464.737 32.8947V102.684M-464.737 32.8947H-394.947M-464.737 102.684V172.474M-464.737 102.684H-394.947M-464.737 172.474V242.263M-464.737 172.474H-394.947M-464.737 242.263V312.053M-464.737 242.263H-394.947M-464.737 312.053V381.842M-464.737 312.053H-394.947M-464.737 381.842V451.632M-464.737 381.842H-394.947M-464.737 451.632V521.421M-464.737 451.632H-394.947M-464.737 521.421V591.21M-464.737 521.421H-394.947M-464.737 591.21V661M-464.737 591.21H-394.947M-464.737 661H-394.947M-394.947 -665V-595.211M-394.947 -665H-325.158M-394.947 -595.211V-525.421M-394.947 -595.211H-325.158M-394.947 -525.421V-455.632M-394.947 -525.421H-325.158M-394.947 -455.632V-385.842M-394.947 -455.632H-325.158M-394.947 -385.842V-316.053M-394.947 -385.842H-325.158M-394.947 -316.053V-246.263M-394.947 -316.053H-325.158M-394.947 -246.263V-176.474M-394.947 -246.263H-325.158M-394.947 -176.474V-106.684M-394.947 -176.474H-325.158M-394.947 -106.684V-36.8948M-394.947 -106.684H-325.158M-394.947 -36.8948V32.8947M-394.947 -36.8948H-325.158M-394.947 32.8947V102.684M-394.947 32.8947H-325.158M-394.947 102.684V172.474M-394.947 102.684H-325.158M-394.947 172.474V242.263M-394.947 172.474H-325.158M-394.947 242.263V312.053M-394.947 242.263H-325.158M-394.947 312.053V381.842M-394.947 312.053H-325.158M-394.947 381.842V451.632M-394.947 381.842H-325.158M-394.947 451.632V521.421M-394.947 451.632H-325.158M-394.947 521.421V591.21M-394.947 521.421H-325.158M-394.947 591.21V661M-394.947 591.21H-325.158M-394.947 661H-325.158M-325.158 -665V-595.211M-325.158 -665H-255.368M-325.158 -595.211V-525.421M-325.158 -595.211H-255.368M-325.158 -525.421V-455.632M-325.158 -525.421H-255.368M-325.158 -455.632V-385.842M-325.158 -455.632H-255.368M-325.158 -385.842V-316.053M-325.158 -385.842H-255.368M-325.158 -316.053V-246.263M-325.158 -316.053H-255.368M-325.158 -246.263V-176.474M-325.158 -246.263H-255.368M-325.158 -176.474V-106.684M-325.158 -176.474H-255.368M-325.158 -106.684V-36.8948M-325.158 -106.684H-255.368M-325.158 -36.8948V32.8947M-325.158 -36.8948H-255.368M-325.158 32.8947V102.684M-325.158 32.8947H-255.368M-325.158 102.684V172.474M-325.158 102.684H-255.368M-325.158 172.474V242.263M-325.158 172.474H-255.368M-325.158 242.263V312.053M-325.158 242.263H-255.368M-325.158 312.053V381.842M-325.158 312.053H-255.368M-325.158 381.842V451.632M-325.158 381.842H-255.368M-325.158 451.632V521.421M-325.158 451.632H-255.368M-325.158 521.421V591.21M-325.158 521.421H-255.368M-325.158 591.21V661M-325.158 591.21H-255.368M-325.158 661H-255.368M-255.368 -665V-595.211M-255.368 -665H-185.579M-255.368 -595.211V-525.421M-255.368 -595.211H-185.579M-255.368 -525.421V-455.632M-255.368 -525.421H-185.579M-255.368 -455.632V-385.842M-255.368 -455.632H-185.579M-255.368 -385.842V-316.053M-255.368 -385.842H-185.579M-255.368 -316.053V-246.263M-255.368 -316.053H-185.579M-255.368 -246.263V-176.474M-255.368 -246.263H-185.579M-255.368 -176.474V-106.684M-255.368 -176.474H-185.579M-255.368 -106.684V-36.8948M-255.368 -106.684H-185.579M-255.368 -36.8948V32.8947M-255.368 -36.8948H-185.579M-255.368 32.8947V102.684M-255.368 32.8947H-185.579M-255.368 102.684V172.474M-255.368 102.684H-185.579M-255.368 172.474V242.263M-255.368 172.474H-185.579M-255.368 242.263V312.053M-255.368 242.263H-185.579M-255.368 312.053V381.842M-255.368 312.053H-185.579M-255.368 381.842V451.632M-255.368 381.842H-185.579M-255.368 451.632V521.421M-255.368 451.632H-185.579M-255.368 521.421V591.21M-255.368 521.421H-185.579M-255.368 591.21V661M-255.368 591.21H-185.579M-255.368 661H-185.579M-185.579 -665V-595.211M-185.579 -665H-115.79M-185.579 -595.211V-525.421M-185.579 -595.211H-115.79M-185.579 -525.421V-455.632M-185.579 -525.421H-115.79M-185.579 -455.632V-385.842M-185.579 -455.632H-115.79M-185.579 -385.842V-316.053M-185.579 -385.842H-115.79M-185.579 -316.053V-246.263M-185.579 -316.053H-115.79M-185.579 -246.263V-176.474M-185.579 -246.263H-115.79M-185.579 -176.474V-106.684M-185.579 -176.474H-115.79M-185.579 -106.684V-36.8948M-185.579 -106.684H-115.79M-185.579 -36.8948V32.8947M-185.579 -36.8948H-115.79M-185.579 32.8947V102.684M-185.579 32.8947H-115.79M-185.579 102.684V172.474M-185.579 102.684H-115.79M-185.579 172.474V242.263M-185.579 172.474H-115.79M-185.579 242.263V312.053M-185.579 242.263H-115.79M-185.579 312.053V381.842M-185.579 312.053H-115.79M-185.579 381.842V451.632M-185.579 381.842H-115.79M-185.579 451.632V521.421M-185.579 451.632H-115.79M-185.579 521.421V591.21M-185.579 521.421H-115.79M-185.579 591.21V661M-185.579 591.21H-115.79M-185.579 661H-115.79M-115.79 -665V-595.211M-115.79 -665H-46M-115.79 -595.211V-525.421M-115.79 -595.211H-46M-115.79 -525.421V-455.632M-115.79 -525.421H-46M-115.79 -455.632V-385.842M-115.79 -455.632H-46M-115.79 -385.842V-316.053M-115.79 -385.842H-46M-115.79 -316.053V-246.263M-115.79 -316.053H-46M-115.79 -246.263V-176.474M-115.79 -246.263H-46M-115.79 -176.474V-106.684M-115.79 -176.474H-46M-115.79 -106.684V-36.8948M-115.79 -106.684H-46M-115.79 -36.8948V32.8947M-115.79 -36.8948H-46M-115.79 32.8947V102.684M-115.79 32.8947H-46M-115.79 102.684V172.474M-115.79 102.684H-46M-115.79 172.474V242.263M-115.79 172.474H-46M-115.79 242.263V312.053M-115.79 242.263H-46M-115.79 312.053V381.842M-115.79 312.053H-46M-115.79 381.842V451.632M-115.79 381.842H-46M-115.79 451.632V521.421M-115.79 451.632H-46M-115.79 521.421V591.21M-115.79 521.421H-46M-115.79 591.21V661M-115.79 591.21H-46M-115.79 661H-46M-46 -665V-595.211M-46 -665H23.7894M-46 -595.211V-525.421M-46 -595.211H23.7894M-46 -525.421V-455.632M-46 -525.421H23.7894M-46 -455.632V-385.842M-46 -455.632H23.7894M-46 -385.842V-316.053M-46 -385.842H23.7894M-46 -316.053V-246.263M-46 -316.053H23.7894M-46 -246.263V-176.474M-46 -246.263H23.7894M-46 -176.474V-106.684M-46 -176.474H23.7894M-46 -106.684V-36.8948M-46 -106.684H23.7894M-46 -36.8948V32.8947M-46 -36.8948H23.7894M-46 32.8947V102.684M-46 32.8947H23.7894M-46 102.684V172.474M-46 102.684H23.7894M-46 172.474V242.263M-46 172.474H23.7894M-46 242.263V312.053M-46 242.263H23.7894M-46 312.053V381.842M-46 312.053H23.7894M-46 381.842V451.632M-46 381.842H23.7894M-46 451.632V521.421M-46 451.632H23.7894M-46 521.421V591.21M-46 521.421H23.7894M-46 591.21V661M-46 591.21H23.7894M-46 661H23.7894M23.7894 -665V-595.211M23.7894 -665H93.5789M23.7894 -595.211V-525.421M23.7894 -595.211H93.5789M23.7894 -525.421V-455.632M23.7894 -525.421H93.5789M23.7894 -455.632V-385.842M23.7894 -455.632H93.5789M23.7894 -385.842V-316.053M23.7894 -385.842H93.5789M23.7894 -316.053V-246.263M23.7894 -316.053H93.5789M23.7894 -246.263V-176.474M23.7894 -246.263H93.5789M23.7894 -176.474V-106.684M23.7894 -176.474H93.5789M23.7894 -106.684V-36.8948M23.7894 -106.684H93.5789M23.7894 -36.8948V32.8947M23.7894 -36.8948H93.5789M23.7894 32.8947V102.684M23.7894 32.8947H93.5789M23.7894 102.684V172.474M23.7894 102.684H93.5789M23.7894 172.474V242.263M23.7894 172.474H93.5789M23.7894 242.263V312.053M23.7894 242.263H93.5789M23.7894 312.053V381.842M23.7894 312.053H93.5789M23.7894 381.842V451.632M23.7894 381.842H93.5789M23.7894 451.632V521.421M23.7894 451.632H93.5789M23.7894 521.421V591.21M23.7894 521.421H93.5789M23.7894 591.21V661M23.7894 591.21H93.5789M23.7894 661H93.5789M93.5789 -665V-595.211M93.5789 -665H163.368M93.5789 -595.211V-525.421M93.5789 -595.211H163.368M93.5789 -525.421V-455.632M93.5789 -525.421H163.368M93.5789 -455.632V-385.842M93.5789 -455.632H163.368M93.5789 -385.842V-316.053M93.5789 -385.842H163.368M93.5789 -316.053V-246.263M93.5789 -316.053H163.368M93.5789 -246.263V-176.474M93.5789 -246.263H163.368M93.5789 -176.474V-106.684M93.5789 -176.474H163.368M93.5789 -106.684V-36.8948M93.5789 -106.684H163.368M93.5789 -36.8948V32.8947M93.5789 -36.8948H163.368M93.5789 32.8947V102.684M93.5789 32.8947H163.368M93.5789 102.684V172.474M93.5789 102.684H163.368M93.5789 172.474V242.263M93.5789 172.474H163.368M93.5789 242.263V312.053M93.5789 242.263H163.368M93.5789 312.053V381.842M93.5789 312.053H163.368M93.5789 381.842V451.632M93.5789 381.842H163.368M93.5789 451.632V521.421M93.5789 451.632H163.368M93.5789 521.421V591.21M93.5789 521.421H163.368M93.5789 591.21V661M93.5789 591.21H163.368M93.5789 661H163.368M163.368 -665V-595.211M163.368 -665H233.158M163.368 -595.211V-525.421M163.368 -595.211H233.158M163.368 -525.421V-455.632M163.368 -525.421H233.158M163.368 -455.632V-385.842M163.368 -455.632H233.158M163.368 -385.842V-316.053M163.368 -385.842H233.158M163.368 -316.053V-246.263M163.368 -316.053H233.158M163.368 -246.263V-176.474M163.368 -246.263H233.158M163.368 -176.474V-106.684M163.368 -176.474H233.158M163.368 -106.684V-36.8948M163.368 -106.684H233.158M163.368 -36.8948V32.8947M163.368 -36.8948H233.158M163.368 32.8947V102.684M163.368 32.8947H233.158M163.368 102.684V172.474M163.368 102.684H233.158M163.368 172.474V242.263M163.368 172.474H233.158M163.368 242.263V312.053M163.368 242.263H233.158M163.368 312.053V381.842M163.368 312.053H233.158M163.368 381.842V451.632M163.368 381.842H233.158M163.368 451.632V521.421M163.368 451.632H233.158M163.368 521.421V591.21M163.368 521.421H233.158M163.368 591.21V661M163.368 591.21H233.158M163.368 661H233.158M233.158 -665V-595.211M233.158 -665H302.947M233.158 -595.211V-525.421M233.158 -595.211H302.947M233.158 -525.421V-455.632M233.158 -525.421H302.947M233.158 -455.632V-385.842M233.158 -455.632H302.947M233.158 -385.842V-316.053M233.158 -385.842H302.947M233.158 -316.053V-246.263M233.158 -316.053H302.947M233.158 -246.263V-176.474M233.158 -246.263H302.947M233.158 -176.474V-106.684M233.158 -176.474H302.947M233.158 -106.684V-36.8948M233.158 -106.684H302.947M233.158 -36.8948V32.8947M233.158 -36.8948H302.947M233.158 32.8947V102.684M233.158 32.8947H302.947M233.158 102.684V172.474M233.158 102.684H302.947M233.158 172.474V242.263M233.158 172.474H302.947M233.158 242.263V312.053M233.158 242.263H302.947M233.158 312.053V381.842M233.158 312.053H302.947M233.158 381.842V451.632M233.158 381.842H302.947M233.158 451.632V521.421M233.158 451.632H302.947M233.158 521.421V591.21M233.158 521.421H302.947M233.158 591.21V661M233.158 591.21H302.947M233.158 661H302.947M302.947 -665V-595.211M302.947 -665H372.737M302.947 -595.211V-525.421M302.947 -595.211H372.737M302.947 -525.421V-455.632M302.947 -525.421H372.737M302.947 -455.632V-385.842M302.947 -455.632H372.737M302.947 -385.842V-316.053M302.947 -385.842H372.737M302.947 -316.053V-246.263M302.947 -316.053H372.737M302.947 -246.263V-176.474M302.947 -246.263H372.737M302.947 -176.474V-106.684M302.947 -176.474H372.737M302.947 -106.684V-36.8948M302.947 -106.684H372.737M302.947 -36.8948V32.8947M302.947 -36.8948H372.737M302.947 32.8947V102.684M302.947 32.8947H372.737M302.947 102.684V172.474M302.947 102.684H372.737M302.947 172.474V242.263M302.947 172.474H372.737M302.947 242.263V312.053M302.947 242.263H372.737M302.947 312.053V381.842M302.947 312.053H372.737M302.947 381.842V451.632M302.947 381.842H372.737M302.947 451.632V521.421M302.947 451.632H372.737M302.947 521.421V591.21M302.947 521.421H372.737M302.947 591.21V661M302.947 591.21H372.737M302.947 661H372.737M372.737 -665V-595.211M372.737 -665H442.526M372.737 -595.211V-525.421M372.737 -595.211H442.526M372.737 -525.421V-455.632M372.737 -525.421H442.526M372.737 -455.632V-385.842M372.737 -455.632H442.526M372.737 -385.842V-316.053M372.737 -385.842H442.526M372.737 -316.053V-246.263M372.737 -316.053H442.526M372.737 -246.263V-176.474M372.737 -246.263H442.526M372.737 -176.474V-106.684M372.737 -176.474H442.526M372.737 -106.684V-36.8948M372.737 -106.684H442.526M372.737 -36.8948V32.8947M372.737 -36.8948H442.526M372.737 32.8947V102.684M372.737 32.8947H442.526M372.737 102.684V172.474M372.737 102.684H442.526M372.737 172.474V242.263M372.737 172.474H442.526M372.737 242.263V312.053M372.737 242.263H442.526M372.737 312.053V381.842M372.737 312.053H442.526M372.737 381.842V451.632M372.737 381.842H442.526M372.737 451.632V521.421M372.737 451.632H442.526M372.737 521.421V591.21M372.737 521.421H442.526M372.737 591.21V661M372.737 591.21H442.526M372.737 661H442.526M442.526 -665V-595.211M442.526 -665H512.316M442.526 -595.211V-525.421M442.526 -595.211H512.316M442.526 -525.421V-455.632M442.526 -525.421H512.316M442.526 -455.632V-385.842M442.526 -455.632H512.316M442.526 -385.842V-316.053M442.526 -385.842H512.316M442.526 -316.053V-246.263M442.526 -316.053H512.316M442.526 -246.263V-176.474M442.526 -246.263H512.316M442.526 -176.474V-106.684M442.526 -176.474H512.316M442.526 -106.684V-36.8948M442.526 -106.684H512.316M442.526 -36.8948V32.8947M442.526 -36.8948H512.316M442.526 32.8947V102.684M442.526 32.8947H512.316M442.526 102.684V172.474M442.526 102.684H512.316M442.526 172.474V242.263M442.526 172.474H512.316M442.526 242.263V312.053M442.526 242.263H512.316M442.526 312.053V381.842M442.526 312.053H512.316M442.526 381.842V451.632M442.526 381.842H512.316M442.526 451.632V521.421M442.526 451.632H512.316M442.526 521.421V591.21M442.526 521.421H512.316M442.526 591.21V661M442.526 591.21H512.316M442.526 661H512.316M512.316 -665V-595.211M512.316 -665H582.105M512.316 -595.211V-525.421M512.316 -595.211H582.105M512.316 -525.421V-455.632M512.316 -525.421H582.105M512.316 -455.632V-385.842M512.316 -455.632H582.105M512.316 -385.842V-316.053M512.316 -385.842H582.105M512.316 -316.053V-246.263M512.316 -316.053H582.105M512.316 -246.263V-176.474M512.316 -246.263H582.105M512.316 -176.474V-106.684M512.316 -176.474H582.105M512.316 -106.684V-36.8948M512.316 -106.684H582.105M512.316 -36.8948V32.8947M512.316 -36.8948H582.105M512.316 32.8947V102.684M512.316 32.8947H582.105M512.316 102.684V172.474M512.316 102.684H582.105M512.316 172.474V242.263M512.316 172.474H582.105M512.316 242.263V312.053M512.316 242.263H582.105M512.316 312.053V381.842M512.316 312.053H582.105M512.316 381.842V451.632M512.316 381.842H582.105M512.316 451.632V521.421M512.316 451.632H582.105M512.316 521.421V591.21M512.316 521.421H582.105M512.316 591.21V661M512.316 591.21H582.105M512.316 661H582.105M582.105 -665V-595.211M582.105 -665H651.895M582.105 -595.211V-525.421M582.105 -595.211H651.895M582.105 -525.421V-455.632M582.105 -525.421H651.895M582.105 -455.632V-385.842M582.105 -455.632H651.895M582.105 -385.842V-316.053M582.105 -385.842H651.895M582.105 -316.053V-246.263M582.105 -316.053H651.895M582.105 -246.263V-176.474M582.105 -246.263H651.895M582.105 -176.474V-106.684M582.105 -176.474H651.895M582.105 -106.684V-36.8948M582.105 -106.684H651.895M582.105 -36.8948V32.8947M582.105 -36.8948H651.895M582.105 32.8947V102.684M582.105 32.8947H651.895M582.105 102.684V172.474M582.105 102.684H651.895M582.105 172.474V242.263M582.105 172.474H651.895M582.105 242.263V312.053M582.105 242.263H651.895M582.105 312.053V381.842M582.105 312.053H651.895M582.105 381.842V451.632M582.105 381.842H651.895M582.105 451.632V521.421M582.105 451.632H651.895M582.105 521.421V591.21M582.105 521.421H651.895M582.105 591.21V661M582.105 591.21H651.895M582.105 661H651.895M651.895 -665V-595.211M651.895 -665H721.684M651.895 -595.211V-525.421M651.895 -595.211H721.684M651.895 -525.421V-455.632M651.895 -525.421H721.684M651.895 -455.632V-385.842M651.895 -455.632H721.684M651.895 -385.842V-316.053M651.895 -385.842H721.684M651.895 -316.053V-246.263M651.895 -316.053H721.684M651.895 -246.263V-176.474M651.895 -246.263H721.684M651.895 -176.474V-106.684M651.895 -176.474H721.684M651.895 -106.684V-36.8948M651.895 -106.684H721.684M651.895 -36.8948V32.8947M651.895 -36.8948H721.684M651.895 32.8947V102.684M651.895 32.8947H721.684M651.895 102.684V172.474M651.895 102.684H721.684M651.895 172.474V242.263M651.895 172.474H721.684M651.895 242.263V312.053M651.895 242.263H721.684M651.895 312.053V381.842M651.895 312.053H721.684M651.895 381.842V451.632M651.895 381.842H721.684M651.895 451.632V521.421M651.895 451.632H721.684M651.895 521.421V591.21M651.895 521.421H721.684M651.895 591.21V661M651.895 591.21H721.684M651.895 661H721.684M721.684 -665V-595.211M721.684 -665H791.474M721.684 -595.211V-525.421M721.684 -595.211H791.474M721.684 -525.421V-455.632M721.684 -525.421H791.474M721.684 -455.632V-385.842M721.684 -455.632H791.474M721.684 -385.842V-316.053M721.684 -385.842H791.474M721.684 -316.053V-246.263M721.684 -316.053H791.474M721.684 -246.263V-176.474M721.684 -246.263H791.474M721.684 -176.474V-106.684M721.684 -176.474H791.474M721.684 -106.684V-36.8948M721.684 -106.684H791.474M721.684 -36.8948V32.8947M721.684 -36.8948H791.474M721.684 32.8947V102.684M721.684 32.8947H791.474M721.684 102.684V172.474M721.684 102.684H791.474M721.684 172.474V242.263M721.684 172.474H791.474M721.684 242.263V312.053M721.684 242.263H791.474M721.684 312.053V381.842M721.684 312.053H791.474M721.684 381.842V451.632M721.684 381.842H791.474M721.684 451.632V521.421M721.684 451.632H791.474M721.684 521.421V591.21M721.684 521.421H791.474M721.684 591.21V661M721.684 591.21H791.474M721.684 661H791.474M791.474 -665V-595.211M791.474 -665H861.263M791.474 -595.211V-525.421M791.474 -595.211H861.263M791.474 -525.421V-455.632M791.474 -525.421H861.263M791.474 -455.632V-385.842M791.474 -455.632H861.263M791.474 -385.842V-316.053M791.474 -385.842H861.263M791.474 -316.053V-246.263M791.474 -316.053H861.263M791.474 -246.263V-176.474M791.474 -246.263H861.263M791.474 -176.474V-106.684M791.474 -176.474H861.263M791.474 -106.684V-36.8948M791.474 -106.684H861.263M791.474 -36.8948V32.8947M791.474 -36.8948H861.263M791.474 32.8947V102.684M791.474 32.8947H861.263M791.474 102.684V172.474M791.474 102.684H861.263M791.474 172.474V242.263M791.474 172.474H861.263M791.474 242.263V312.053M791.474 242.263H861.263M791.474 312.053V381.842M791.474 312.053H861.263M791.474 381.842V451.632M791.474 381.842H861.263M791.474 451.632V521.421M791.474 451.632H861.263M791.474 521.421V591.21M791.474 521.421H861.263M791.474 591.21V661M791.474 591.21H861.263M791.474 661H861.263M861.263 -665V-595.211M861.263 -665H931.053M861.263 -595.211V-525.421M861.263 -595.211H931.053M861.263 -525.421V-455.632M861.263 -525.421H931.053M861.263 -455.632V-385.842M861.263 -455.632H931.053M861.263 -385.842V-316.053M861.263 -385.842H931.053M861.263 -316.053V-246.263M861.263 -316.053H931.053M861.263 -246.263V-176.474M861.263 -246.263H931.053M861.263 -176.474V-106.684M861.263 -176.474H931.053M861.263 -106.684V-36.8948M861.263 -106.684H931.053M861.263 -36.8948V32.8947M861.263 -36.8948H931.053M861.263 32.8947V102.684M861.263 32.8947H931.053M861.263 102.684V172.474M861.263 102.684H931.053M861.263 172.474V242.263M861.263 172.474H931.053M861.263 242.263V312.053M861.263 242.263H931.053M861.263 312.053V381.842M861.263 312.053H931.053M861.263 381.842V451.632M861.263 381.842H931.053M861.263 451.632V521.421M861.263 451.632H931.053M861.263 521.421V591.21M861.263 521.421H931.053M861.263 591.21V661M861.263 591.21H931.053M861.263 661H931.053M931.053 -665V-595.211M931.053 -665H1000.84M931.053 -595.211V-525.421M931.053 -595.211H1000.84M931.053 -525.421V-455.632M931.053 -525.421H1000.84M931.053 -455.632V-385.842M931.053 -455.632H1000.84M931.053 -385.842V-316.053M931.053 -385.842H1000.84M931.053 -316.053V-246.263M931.053 -316.053H1000.84M931.053 -246.263V-176.474M931.053 -246.263H1000.84M931.053 -176.474V-106.684M931.053 -176.474H1000.84M931.053 -106.684V-36.8948M931.053 -106.684H1000.84M931.053 -36.8948V32.8947M931.053 -36.8948H1000.84M931.053 32.8947V102.684M931.053 32.8947H1000.84M931.053 102.684V172.474M931.053 102.684H1000.84M931.053 172.474V242.263M931.053 172.474H1000.84M931.053 242.263V312.053M931.053 242.263H1000.84M931.053 312.053V381.842M931.053 312.053H1000.84M931.053 381.842V451.632M931.053 381.842H1000.84M931.053 451.632V521.421M931.053 451.632H1000.84M931.053 521.421V591.21M931.053 521.421H1000.84M931.053 591.21V661M931.053 591.21H1000.84M931.053 661H1000.84M1000.84 -665V-595.211M1000.84 -665H1070.63M1000.84 -595.211V-525.421M1000.84 -595.211H1070.63M1000.84 -525.421V-455.632M1000.84 -525.421H1070.63M1000.84 -455.632V-385.842M1000.84 -455.632H1070.63M1000.84 -385.842V-316.053M1000.84 -385.842H1070.63M1000.84 -316.053V-246.263M1000.84 -316.053H1070.63M1000.84 -246.263V-176.474M1000.84 -246.263H1070.63M1000.84 -176.474V-106.684M1000.84 -176.474H1070.63M1000.84 -106.684V-36.8948M1000.84 -106.684H1070.63M1000.84 -36.8948V32.8947M1000.84 -36.8948H1070.63M1000.84 32.8947V102.684M1000.84 32.8947H1070.63M1000.84 102.684V172.474M1000.84 102.684H1070.63M1000.84 172.474V242.263M1000.84 172.474H1070.63M1000.84 242.263V312.053M1000.84 242.263H1070.63M1000.84 312.053V381.842M1000.84 312.053H1070.63M1000.84 381.842V451.632M1000.84 381.842H1070.63M1000.84 451.632V521.421M1000.84 451.632H1070.63M1000.84 521.421V591.21M1000.84 521.421H1070.63M1000.84 591.21V661M1000.84 591.21H1070.63M1000.84 661H1070.63M1070.63 -665V-595.211M1070.63 -665H1140.42M1070.63 -595.211V-525.421M1070.63 -595.211H1140.42M1070.63 -525.421V-455.632M1070.63 -525.421H1140.42M1070.63 -455.632V-385.842M1070.63 -455.632H1140.42M1070.63 -385.842V-316.053M1070.63 -385.842H1140.42M1070.63 -316.053V-246.263M1070.63 -316.053H1140.42M1070.63 -246.263V-176.474M1070.63 -246.263H1140.42M1070.63 -176.474V-106.684M1070.63 -176.474H1140.42M1070.63 -106.684V-36.8948M1070.63 -106.684H1140.42M1070.63 -36.8948V32.8947M1070.63 -36.8948H1140.42M1070.63 32.8947V102.684M1070.63 32.8947H1140.42M1070.63 102.684V172.474M1070.63 102.684H1140.42M1070.63 172.474V242.263M1070.63 172.474H1140.42M1070.63 242.263V312.053M1070.63 242.263H1140.42M1070.63 312.053V381.842M1070.63 312.053H1140.42M1070.63 381.842V451.632M1070.63 381.842H1140.42M1070.63 451.632V521.421M1070.63 451.632H1140.42M1070.63 521.421V591.21M1070.63 521.421H1140.42M1070.63 591.21V661M1070.63 591.21H1140.42M1070.63 661H1140.42M1140.42 -665V-595.211M1140.42 -665H1210.21M1140.42 -595.211V-525.421M1140.42 -595.211H1210.21M1140.42 -525.421V-455.632M1140.42 -525.421H1210.21M1140.42 -455.632V-385.842M1140.42 -455.632H1210.21M1140.42 -385.842V-316.053M1140.42 -385.842H1210.21M1140.42 -316.053V-246.263M1140.42 -316.053H1210.21M1140.42 -246.263V-176.474M1140.42 -246.263H1210.21M1140.42 -176.474V-106.684M1140.42 -176.474H1210.21M1140.42 -106.684V-36.8948M1140.42 -106.684H1210.21M1140.42 -36.8948V32.8947M1140.42 -36.8948H1210.21M1140.42 32.8947V102.684M1140.42 32.8947H1210.21M1140.42 102.684V172.474M1140.42 102.684H1210.21M1140.42 172.474V242.263M1140.42 172.474H1210.21M1140.42 242.263V312.053M1140.42 242.263H1210.21M1140.42 312.053V381.842M1140.42 312.053H1210.21M1140.42 381.842V451.632M1140.42 381.842H1210.21M1140.42 451.632V521.421M1140.42 451.632H1210.21M1140.42 521.421V591.21M1140.42 521.421H1210.21M1140.42 591.21V661M1140.42 591.21H1210.21M1140.42 661H1210.21M1210.21 -665V-595.211M1210.21 -665H1280M1210.21 -595.211V-525.421M1210.21 -595.211H1280M1210.21 -525.421V-455.632M1210.21 -525.421H1280M1210.21 -455.632V-385.842M1210.21 -455.632H1280M1210.21 -385.842V-316.053M1210.21 -385.842H1280M1210.21 -316.053V-246.263M1210.21 -316.053H1280M1210.21 -246.263V-176.474M1210.21 -246.263H1280M1210.21 -176.474V-106.684M1210.21 -176.474H1280M1210.21 -106.684V-36.8948M1210.21 -106.684H1280M1210.21 -36.8948V32.8947M1210.21 -36.8948H1280M1210.21 32.8947V102.684M1210.21 32.8947H1280M1210.21 102.684V172.474M1210.21 102.684H1280M1210.21 172.474V242.263M1210.21 172.474H1280M1210.21 242.263V312.053M1210.21 242.263H1280M1210.21 312.053V381.842M1210.21 312.053H1280M1210.21 381.842V451.632M1210.21 381.842H1280M1210.21 451.632V521.421M1210.21 451.632H1280M1210.21 521.421V591.21M1210.21 521.421H1280M1210.21 591.21V661M1210.21 591.21H1280M1210.21 661H1280M1280 -665V-595.211M1280 -665H1349.79M1280 -595.211V-525.421M1280 -595.211H1349.79M1280 -525.421V-455.632M1280 -525.421H1349.79M1280 -455.632V-385.842M1280 -455.632H1349.79M1280 -385.842V-316.053M1280 -385.842H1349.79M1280 -316.053V-246.263M1280 -316.053H1349.79M1280 -246.263V-176.474M1280 -246.263H1349.79M1280 -176.474V-106.684M1280 -176.474H1349.79M1280 -106.684V-36.8948M1280 -106.684H1349.79M1280 -36.8948V32.8947M1280 -36.8948H1349.79M1280 32.8947V102.684M1280 32.8947H1349.79M1280 102.684V172.474M1280 102.684H1349.79M1280 172.474V242.263M1280 172.474H1349.79M1280 242.263V312.053M1280 242.263H1349.79M1280 312.053V381.842M1280 312.053H1349.79M1280 381.842V451.632M1280 381.842H1349.79M1280 451.632V521.421M1280 451.632H1349.79M1280 521.421V591.21M1280 521.421H1349.79M1280 591.21V661M1280 591.21H1349.79M1280 661H1349.79M1349.79 -665V-595.211M1349.79 -665H1419.58M1349.79 -595.211V-525.421M1349.79 -595.211H1419.58M1349.79 -525.421V-455.632M1349.79 -525.421H1419.58M1349.79 -455.632V-385.842M1349.79 -455.632H1419.58M1349.79 -385.842V-316.053M1349.79 -385.842H1419.58M1349.79 -316.053V-246.263M1349.79 -316.053H1419.58M1349.79 -246.263V-176.474M1349.79 -246.263H1419.58M1349.79 -176.474V-106.684M1349.79 -176.474H1419.58M1349.79 -106.684V-36.8948M1349.79 -106.684H1419.58M1349.79 -36.8948V32.8947M1349.79 -36.8948H1419.58M1349.79 32.8947V102.684M1349.79 32.8947H1419.58M1349.79 102.684V172.474M1349.79 102.684H1419.58M1349.79 172.474V242.263M1349.79 172.474H1419.58M1349.79 242.263V312.053M1349.79 242.263H1419.58M1349.79 312.053V381.842M1349.79 312.053H1419.58M1349.79 381.842V451.632M1349.79 381.842H1419.58M1349.79 451.632V521.421M1349.79 451.632H1419.58M1349.79 521.421V591.21M1349.79 521.421H1419.58M1349.79 591.21V661M1349.79 591.21H1419.58M1349.79 661H1419.58M1419.58 -665V-595.211M1419.58 -665H1489.37M1419.58 -595.211V-525.421M1419.58 -595.211H1489.37M1419.58 -525.421V-455.632M1419.58 -525.421H1489.37M1419.58 -455.632V-385.842M1419.58 -455.632H1489.37M1419.58 -385.842V-316.053M1419.58 -385.842H1489.37M1419.58 -316.053V-246.263M1419.58 -316.053H1489.37M1419.58 -246.263V-176.474M1419.58 -246.263H1489.37M1419.58 -176.474V-106.684M1419.58 -176.474H1489.37M1419.58 -106.684V-36.8948M1419.58 -106.684H1489.37M1419.58 -36.8948V32.8947M1419.58 -36.8948H1489.37M1419.58 32.8947V102.684M1419.58 32.8947H1489.37M1419.58 102.684V172.474M1419.58 102.684H1489.37M1419.58 172.474V242.263M1419.58 172.474H1489.37M1419.58 242.263V312.053M1419.58 242.263H1489.37M1419.58 312.053V381.842M1419.58 312.053H1489.37M1419.58 381.842V451.632M1419.58 381.842H1489.37M1419.58 451.632V521.421M1419.58 451.632H1489.37M1419.58 521.421V591.21M1419.58 521.421H1489.37M1419.58 591.21V661M1419.58 591.21H1489.37M1419.58 661H1489.37M1489.37 -665V-595.211M1489.37 -665H1559.16M1489.37 -595.211V-525.421M1489.37 -595.211H1559.16M1489.37 -525.421V-455.632M1489.37 -525.421H1559.16M1489.37 -455.632V-385.842M1489.37 -455.632H1559.16M1489.37 -385.842V-316.053M1489.37 -385.842H1559.16M1489.37 -316.053V-246.263M1489.37 -316.053H1559.16M1489.37 -246.263V-176.474M1489.37 -246.263H1559.16M1489.37 -176.474V-106.684M1489.37 -176.474H1559.16M1489.37 -106.684V-36.8948M1489.37 -106.684H1559.16M1489.37 -36.8948V32.8947M1489.37 -36.8948H1559.16M1489.37 32.8947V102.684M1489.37 32.8947H1559.16M1489.37 102.684V172.474M1489.37 102.684H1559.16M1489.37 172.474V242.263M1489.37 172.474H1559.16M1489.37 242.263V312.053M1489.37 242.263H1559.16M1489.37 312.053V381.842M1489.37 312.053H1559.16M1489.37 381.842V451.632M1489.37 381.842H1559.16M1489.37 451.632V521.421M1489.37 451.632H1559.16M1489.37 521.421V591.21M1489.37 521.421H1559.16M1489.37 591.21V661M1489.37 591.21H1559.16M1489.37 661H1559.16M1559.16 -665V-595.211M1559.16 -665H1628.95M1559.16 -595.211V-525.421M1559.16 -595.211H1628.95M1559.16 -525.421V-455.632M1559.16 -525.421H1628.95M1559.16 -455.632V-385.842M1559.16 -455.632H1628.95M1559.16 -385.842V-316.053M1559.16 -385.842H1628.95M1559.16 -316.053V-246.263M1559.16 -316.053H1628.95M1559.16 -246.263V-176.474M1559.16 -246.263H1628.95M1559.16 -176.474V-106.684M1559.16 -176.474H1628.95M1559.16 -106.684V-36.8948M1559.16 -106.684H1628.95M1559.16 -36.8948V32.8947M1559.16 -36.8948H1628.95M1559.16 32.8947V102.684M1559.16 32.8947H1628.95M1559.16 102.684V172.474M1559.16 102.684H1628.95M1559.16 172.474V242.263M1559.16 172.474H1628.95M1559.16 242.263V312.053M1559.16 242.263H1628.95M1559.16 312.053V381.842M1559.16 312.053H1628.95M1559.16 381.842V451.632M1559.16 381.842H1628.95M1559.16 451.632V521.421M1559.16 451.632H1628.95M1559.16 521.421V591.21M1559.16 521.421H1628.95M1559.16 591.21V661M1559.16 591.21H1628.95M1559.16 661H1628.95M1628.95 -665V-595.211M1628.95 -665H1698.74V-595.211M1628.95 -595.211V-525.421M1628.95 -595.211H1698.74M1628.95 -525.421V-455.632M1628.95 -525.421H1698.74M1628.95 -455.632V-385.842M1628.95 -455.632H1698.74M1628.95 -385.842V-316.053M1628.95 -385.842H1698.74M1628.95 -316.053V-246.263M1628.95 -316.053H1698.74M1628.95 -246.263V-176.474M1628.95 -246.263H1698.74M1628.95 -176.474V-106.684M1628.95 -176.474H1698.74M1628.95 -106.684V-36.8948M1628.95 -106.684H1698.74M1628.95 -36.8948V32.8947M1628.95 -36.8948H1698.74M1628.95 32.8947V102.684M1628.95 32.8947H1698.74M1628.95 102.684V172.474M1628.95 102.684H1698.74M1628.95 172.474V242.263M1628.95 172.474H1698.74M1628.95 242.263V312.053M1628.95 242.263H1698.74M1628.95 312.053V381.842M1628.95 312.053H1698.74M1628.95 381.842V451.632M1628.95 381.842H1698.74M1628.95 451.632V521.421M1628.95 451.632H1698.74M1628.95 521.421V591.21M1628.95 521.421H1698.74M1628.95 591.21V661M1628.95 591.21H1698.74M1628.95 661H1698.74V591.21M1698.74 -595.211V-525.421M1698.74 -525.421V-455.632M1698.74 -455.632V-385.842M1698.74 -385.842V-316.053M1698.74 -316.053V-246.263M1698.74 -246.263V-176.474M1698.74 -176.474V-106.684M1698.74 -106.684V-36.8948M1698.74 -36.8948V32.8947M1698.74 32.8947V102.684M1698.74 102.684V172.474M1698.74 172.474V242.263M1698.74 242.263V312.053M1698.74 312.053V381.842M1698.74 381.842V451.632M1698.74 451.632V521.421M1698.74 521.421V591.21" stroke="url(#paint0_radial_1809_567)" stroke-width="1.74474"/>
</g>
<defs>
<radialGradient id="paint0_radial_1809_567" cx="0" cy="0" r="1" gradientUnits="userSpaceOnUse" gradientTransform="translate(163 185.5) rotate(-90) scale(166.5 311.362)">
<stop stop-color="#4B991E"/>
<stop offset="1" stop-color="white" stop-opacity="0"/>
</radialGradient>
<clipPath id="clip0_1809_567">
<rect width="365" height="271" fill="white"/>
</clipPath>
</defs>
</svg>
